<svg width="830" height="837" fill="none" xmlns="http://www.w3.org/2000/svg"><g clip-path="url(#a)" fill="#22ADAA"><path d="M473.405 54.803 97.212 241.065c-15.78 7.813-22.26 27.005-14.448 42.785L316.04 755c7.812 15.779 27.005 22.26 42.783 14.448l376.195-186.261c15.778-7.812 22.259-27.005 14.446-42.784L516.189 69.252c-7.812-15.78-27.005-22.261-42.784-14.448ZM98.245 276.185c-3.587-7.243-.612-16.054 6.631-19.64L481.07 70.284c7.243-3.587 16.053-.612 19.64 6.632L568.632 214.1 166.167 413.368 98.244 276.184Zm629.109 291.521-376.196 186.26c-7.242 3.586-16.052.611-19.639-6.632L173.83 428.847l402.465-199.268 157.689 318.486c3.587 7.244.612 16.054-6.63 19.64Z"/><path d="M456.161 108.695 211.422 229.87a8.636 8.636 0 0 0-3.907 11.572 8.636 8.636 0 0 0 11.572 3.907l244.738-121.174a2.494 2.494 0 0 1 3.337 1.127l35.73 72.166a2.493 2.493 0 0 1-1.126 3.336l-305.64 151.329a2.493 2.493 0 0 1-3.336-1.128l-35.73-72.165a2.493 2.493 0 0 1 1.126-3.337l24.72-12.24a8.636 8.636 0 1 0-7.664-15.48l-24.721 12.24c-9.766 4.835-13.777 16.714-8.941 26.481l35.73 72.166c4.835 9.765 16.715 13.778 26.481 8.943l305.64-151.329c9.766-4.835 13.777-16.714 8.941-26.481l-35.73-72.165c-4.835-9.766-16.715-13.778-26.481-8.943ZM289.447 399.876l-44.376 21.971c-9.908 4.906-13.977 16.957-9.071 26.865l21.971 44.376c4.906 9.908 16.958 13.978 26.865 9.073l44.376-21.971c9.908-4.906 13.978-16.958 9.072-26.866l-21.971-44.376c-4.907-9.908-16.959-13.978-26.866-9.072Zm33.356 61.113a2.78 2.78 0 0 1-1.257 3.721l-44.375 21.971a2.78 2.78 0 0 1-3.721-1.257l-21.971-44.376a2.78 2.78 0 0 1 1.255-3.721l44.376-21.971a2.78 2.78 0 0 1 3.722 1.257l21.971 44.376Zm85.692-120.056-44.376 21.971c-9.908 4.906-13.978 16.958-9.072 26.866l21.971 44.376c4.906 9.908 16.958 13.978 26.866 9.072l44.376-21.971c9.908-4.906 13.978-16.958 9.072-26.866l-21.971-44.376c-4.906-9.908-16.958-13.978-26.866-9.072Zm33.357 61.112a2.78 2.78 0 0 1-1.257 3.722l-44.375 21.971a2.78 2.78 0 0 1-3.722-1.257l-21.971-44.376a2.78 2.78 0 0 1 1.256-3.721l44.376-21.971a2.781 2.781 0 0 1 3.722 1.256l21.971 44.376Zm85.686-120.057-44.376 21.972c-9.908 4.905-13.978 16.957-9.072 26.866l21.971 44.375c4.906 9.909 16.958 13.978 26.866 9.073l44.376-21.972c9.908-4.905 13.977-16.957 9.071-26.865l-21.971-44.376c-4.906-9.908-16.958-13.978-26.865-9.073Zm33.356 61.113a2.78 2.78 0 0 1-1.256 3.721l-44.375 21.972a2.781 2.781 0 0 1-3.722-1.257l-21.971-44.376a2.78 2.78 0 0 1 1.256-3.721l44.376-21.972a2.781 2.781 0 0 1 3.721 1.257l21.971 44.376ZM339.087 500.143l-44.376 21.971c-9.908 4.906-13.977 16.958-9.071 26.866l21.971 44.376c4.906 9.908 16.958 13.978 26.865 9.072l44.376-21.971c9.908-4.906 13.978-16.958 9.072-26.866l-21.972-44.376c-4.906-9.907-16.958-13.977-26.865-9.072Zm33.356 61.113a2.781 2.781 0 0 1-1.257 3.722l-44.376 21.971a2.78 2.78 0 0 1-3.72-1.257l-21.972-44.376a2.781 2.781 0 0 1 1.256-3.721l44.376-21.971a2.781 2.781 0 0 1 3.722 1.256l21.971 44.376Zm85.689-120.052-44.376 21.971c-9.908 4.906-13.978 16.958-9.073 26.866l21.972 44.376c4.906 9.908 16.958 13.978 26.866 9.072l44.376-21.971c9.908-4.906 13.978-16.958 9.072-26.866l-21.972-44.376c-4.905-9.908-16.957-13.978-26.865-9.072Zm33.357 61.113a2.78 2.78 0 0 1-1.257 3.721l-44.376 21.972a2.781 2.781 0 0 1-3.721-1.257l-21.972-44.376a2.782 2.782 0 0 1 1.257-3.722l44.376-21.971a2.78 2.78 0 0 1 3.722 1.257l21.971 44.376ZM388.73 600.411l-44.376 21.971c-9.908 4.906-13.977 16.957-9.071 26.865l21.971 44.376c4.906 9.908 16.958 13.978 26.865 9.073l44.376-21.971c9.908-4.906 13.978-16.958 9.072-26.866l-21.971-44.376c-4.907-9.908-16.959-13.978-26.866-9.072Zm33.356 61.113a2.78 2.78 0 0 1-1.256 3.721l-44.376 21.972a2.78 2.78 0 0 1-3.721-1.258l-21.971-44.375a2.78 2.78 0 0 1 1.256-3.722l44.375-21.971a2.781 2.781 0 0 1 3.722 1.257l21.971 44.376Zm85.694-120.061-44.376 21.971c-9.908 4.906-13.978 16.958-9.072 26.866l21.971 44.376c4.906 9.908 16.958 13.978 26.866 9.072l44.376-21.971c9.908-4.906 13.978-16.958 9.072-26.866l-21.971-44.376c-4.906-9.908-16.958-13.978-26.866-9.072Zm33.357 61.112a2.781 2.781 0 0 1-1.256 3.722l-44.376 21.971a2.781 2.781 0 0 1-3.722-1.256l-21.971-44.376a2.78 2.78 0 0 1 1.257-3.722l44.375-21.971a2.78 2.78 0 0 1 3.722 1.257l21.971 44.375Zm36.047-220.316-44.376 21.971c-9.908 4.906-13.978 16.958-9.072 26.866l26.851 54.231a8.636 8.636 0 0 0 11.572 3.908 8.636 8.636 0 0 0 3.908-11.572l-26.851-54.231a2.781 2.781 0 0 1 1.257-3.722l44.376-21.971a2.778 2.778 0 0 1 3.72 1.257l71.616 144.644a2.781 2.781 0 0 1-1.255 3.722l-44.376 21.971a2.781 2.781 0 0 1-3.722-1.257l-26.851-54.231a8.636 8.636 0 1 0-15.48 7.664l26.851 54.232c4.906 9.908 16.958 13.978 26.866 9.072l44.376-21.972c9.908-4.905 13.977-16.957 9.071-26.865l-71.616-144.644c-4.906-9.909-16.958-13.978-26.865-9.073Z"/></g><g clip-path="url(#b)" fill="#1B1821"><path d="M470.353 67.077 94.16 253.337c-15.78 7.813-22.26 27.006-14.448 42.785l233.276 471.15c7.813 15.78 27.005 22.261 42.783 14.449L731.966 595.46c15.778-7.812 22.259-27.005 14.447-42.784L513.137 81.526c-7.812-15.78-27.004-22.262-42.784-14.45ZM95.193 288.458c-3.587-7.244-.612-16.054 6.632-19.641l376.193-186.26c7.243-3.587 16.054-.611 19.64 6.632l67.923 137.184-402.466 199.269-67.923-137.184Zm629.109 291.52L348.107 766.24c-7.243 3.586-16.053.611-19.64-6.633L170.779 441.121l402.465-199.268 157.688 318.486c3.588 7.243.612 16.053-6.63 19.639Z"/><path d="M453.109 120.968 208.371 242.143a8.636 8.636 0 0 0-3.908 11.572 8.636 8.636 0 0 0 11.572 3.908l244.739-121.175a2.492 2.492 0 0 1 3.336 1.128l35.731 72.165a2.494 2.494 0 0 1-1.126 3.337l-305.64 151.328a2.494 2.494 0 0 1-3.337-1.127l-35.73-72.166a2.494 2.494 0 0 1 1.126-3.337l24.72-12.239a8.637 8.637 0 0 0-7.664-15.48l-24.721 12.239c-9.765 4.836-13.777 16.715-8.941 26.482l35.73 72.165c4.836 9.766 16.715 13.778 26.481 8.943l305.64-151.328c9.766-4.835 13.777-16.715 8.941-26.481l-35.73-72.166c-4.835-9.766-16.715-13.778-26.481-8.943ZM286.395 412.149l-44.376 21.971c-9.908 4.906-13.977 16.958-9.071 26.866l21.971 44.376c4.906 9.908 16.958 13.978 26.865 9.072l44.376-21.971c9.908-4.906 13.978-16.958 9.072-26.866l-21.971-44.376c-4.907-9.907-16.959-13.977-26.866-9.072Zm33.356 61.113a2.781 2.781 0 0 1-1.256 3.722l-44.376 21.971a2.781 2.781 0 0 1-3.721-1.257l-21.971-44.376a2.78 2.78 0 0 1 1.256-3.721l44.376-21.972a2.781 2.781 0 0 1 3.721 1.257l21.971 44.376Zm85.692-120.056-44.376 21.971c-9.908 4.906-13.978 16.958-9.072 26.866l21.971 44.376c4.906 9.908 16.958 13.978 26.866 9.072l44.376-21.971c9.908-4.906 13.978-16.958 9.072-26.866l-21.971-44.376c-4.906-9.908-16.958-13.978-26.866-9.072Zm33.357 61.113a2.78 2.78 0 0 1-1.256 3.721l-44.376 21.971a2.781 2.781 0 0 1-3.722-1.256l-21.971-44.376a2.78 2.78 0 0 1 1.257-3.722l44.375-21.971a2.78 2.78 0 0 1 3.722 1.257l21.971 44.376Zm85.686-120.057-44.376 21.971c-9.908 4.906-13.978 16.958-9.072 26.866l21.971 44.376c4.906 9.908 16.958 13.978 26.866 9.072l44.376-21.971c9.908-4.906 13.977-16.957 9.071-26.866l-21.971-44.375c-4.906-9.909-16.958-13.978-26.865-9.073Zm33.356 61.113a2.78 2.78 0 0 1-1.255 3.721l-44.376 21.971a2.78 2.78 0 0 1-3.722-1.257l-21.971-44.375a2.78 2.78 0 0 1 1.257-3.722l44.375-21.971a2.78 2.78 0 0 1 3.721 1.257l21.971 44.376ZM336.035 512.417l-44.376 21.971c-9.908 4.906-13.977 16.957-9.071 26.865l21.971 44.376c4.906 9.908 16.958 13.978 26.865 9.073l44.376-21.971c9.908-4.906 13.978-16.958 9.072-26.866l-21.971-44.376c-4.907-9.908-16.959-13.978-26.866-9.072Zm33.356 61.113a2.78 2.78 0 0 1-1.257 3.721l-44.375 21.971a2.78 2.78 0 0 1-3.721-1.257l-21.971-44.376a2.78 2.78 0 0 1 1.255-3.721l44.376-21.971a2.78 2.78 0 0 1 3.722 1.257l21.971 44.376Zm85.689-120.052-44.376 21.971c-9.908 4.906-13.978 16.958-9.072 26.866l21.971 44.376c4.906 9.908 16.958 13.978 26.866 9.072l44.376-21.971c9.908-4.906 13.978-16.958 9.072-26.866l-21.971-44.376c-4.906-9.908-16.958-13.978-26.866-9.072Zm33.357 61.112a2.78 2.78 0 0 1-1.257 3.722l-44.375 21.971a2.78 2.78 0 0 1-3.722-1.257l-21.971-44.376a2.78 2.78 0 0 1 1.256-3.721l44.376-21.972a2.782 2.782 0 0 1 3.722 1.257l21.971 44.376Zm-102.759 98.094-44.375 21.971c-9.909 4.906-13.977 16.958-9.072 26.866l21.972 44.376c4.905 9.908 16.957 13.978 26.865 9.072l44.375-21.971c9.909-4.906 13.978-16.958 9.073-26.866l-21.972-44.376c-4.906-9.907-16.959-13.977-26.866-9.072Zm33.357 61.113a2.782 2.782 0 0 1-1.257 3.722l-44.376 21.971a2.78 2.78 0 0 1-3.72-1.257l-21.972-44.376a2.78 2.78 0 0 1 1.256-3.721l44.376-21.971a2.78 2.78 0 0 1 3.721 1.256l21.972 44.376Zm85.693-120.061-44.376 21.972c-9.908 4.905-13.978 16.957-9.072 26.866l21.971 44.375c4.906 9.909 16.958 13.978 26.866 9.073l44.376-21.972c9.908-4.905 13.978-16.957 9.072-26.866l-21.971-44.375c-4.906-9.909-16.958-13.978-26.866-9.073Zm33.358 61.113a2.781 2.781 0 0 1-1.257 3.721l-44.376 21.972a2.781 2.781 0 0 1-3.722-1.257l-21.971-44.376a2.78 2.78 0 0 1 1.257-3.721l44.376-21.972a2.78 2.78 0 0 1 3.721 1.257l21.972 44.376Zm36.046-220.317-44.375 21.972c-9.909 4.905-13.978 16.957-9.073 26.865l26.851 54.232a8.638 8.638 0 1 0 15.48-7.665l-26.851-54.231a2.782 2.782 0 0 1 1.257-3.722l44.376-21.971a2.78 2.78 0 0 1 3.72 1.257l71.617 144.645a2.78 2.78 0 0 1-1.256 3.721l-44.376 21.971a2.78 2.78 0 0 1-3.721-1.256l-26.851-54.232a8.638 8.638 0 1 0-15.48 7.665l26.851 54.231c4.905 9.908 16.957 13.978 26.866 9.072l44.375-21.971c9.909-4.906 13.977-16.957 9.072-26.866l-71.617-144.644c-4.905-9.908-16.957-13.978-26.865-9.073Z"/></g><defs><clipPath id="a"><path fill="#fff" transform="rotate(-26.341 606.136 94.258)" d="M0 0h589.6v589.6H0z"/></clipPath><clipPath id="b"><path fill="#fff" transform="rotate(-26.341 630.836 106.916)" d="M0 0h589.6v589.6H0z"/></clipPath></defs></svg>