<svg width="101" height="100" fill="none" xmlns="http://www.w3.org/2000/svg"><g fill="#1B1821"><path d="M65.356 0H11.333v100h78.333V24.31L65.356 0Zm.977 5.69 17.643 17.643H66.333V5.69ZM14.666 96.667V3.333H63v23.334h23.333v70H14.666Z"/><path d="M28 28.333h15c.921 0 1.666-.745 1.666-1.666 0-.922-.745-1.667-1.666-1.667H28c-.922 0-1.667.745-1.667 1.667 0 .921.745 1.666 1.667 1.666Zm0 13.333h8.333a1.665 1.665 0 1 0 0-3.333H28c-.922 0-1.667.745-1.667 1.667 0 .921.745 1.666 1.667 1.666Zm25 0h11.666a1.665 1.665 0 1 0 0-3.333H53c-.922 0-1.667.745-1.667 1.667 0 .921.745 1.666 1.667 1.666Zm-9.517-2.832A1.61 1.61 0 0 0 43 40c0 .434.167.867.483 1.184.315.3.75.483 1.184.483.433 0 .866-.168 1.183-.5.3-.302.483-.733.483-1.167 0-.435-.183-.868-.483-1.183-.633-.617-1.75-.617-2.367.017ZM73 41.667c.433 0 .866-.183 1.183-.483.3-.317.483-.75.483-1.184 0-.435-.183-.868-.483-1.183-.633-.617-1.733-.617-2.367 0A1.739 1.739 0 0 0 71.333 40c0 .434.182.867.483 1.184.315.3.75.483 1.184.483Zm-25 10H36.332c-.922 0-1.667.745-1.667 1.667 0 .921.745 1.666 1.667 1.666h11.666a1.665 1.665 0 1 0 0-3.333ZM28 55c.433 0 .866-.183 1.183-.483.315-.317.483-.75.483-1.184a1.68 1.68 0 0 0-.483-1.183c-.633-.617-1.733-.617-2.367 0a1.644 1.644 0 0 0-.483 1.183c0 .434.182.867.483 1.184.315.3.75.483 1.184.483Zm5.241 11.944c-3.65 1.9-4.878 5.534-5.326 9.303l-2.07-1.734c-1.634-1.368-4.004.977-2.357 2.359l4.677 3.918c1.096.918 2.795.338 2.845-1.178.121-3.61.291-7.903 3.913-9.788 1.903-.992.22-3.87-1.682-2.88Zm11.083 6.648c-2.308.535-4.935 3.472-6.56.177-.948-1.924-3.825-.237-2.878 1.681.861 1.748 2.5 2.974 4.448 3.22.99.125 1.885-.015 2.813-.377.682-.265 3.229-2.18 3.779-1.195 1.046 1.874 3.926.194 2.878-1.681-.895-1.603-2.707-2.237-4.48-1.825Zm34.084-16.07a1.06 1.06 0 0 1-.605-1.462 4.357 4.357 0 0 0-.863-5 4.358 4.358 0 0 0-4.999-.863 1.061 1.061 0 0 1-1.463-.605 4.35 4.35 0 0 0-4.145-2.925 4.35 4.35 0 0 0-4.145 2.925 1.06 1.06 0 0 1-.595.628 1.051 1.051 0 0 1-.867-.023 4.363 4.363 0 0 0-5 .863 4.355 4.355 0 0 0-.863 4.999 1.065 1.065 0 0 1-.605 1.463 4.35 4.35 0 0 0-2.925 4.145 4.35 4.35 0 0 0 2.925 4.145 1.06 1.06 0 0 1 .605 1.462 4.357 4.357 0 0 0 .863 5A4.404 4.404 0 0 0 58 73.487v20.537l8.333-8.334 8.333 8.334V73.485a4.37 4.37 0 0 0 2.274-1.211 4.355 4.355 0 0 0 .863-4.999 1.068 1.068 0 0 1-.023-.868c.068-.165.24-.457.628-.595a4.35 4.35 0 0 0 2.925-4.145 4.35 4.35 0 0 0-2.925-4.145ZM66.333 80.977l-5 5v-12.93c.015.002.03.003.043.007.084.016.164.036.217.06a1.035 1.035 0 0 1 .595.628 4.35 4.35 0 0 0 4.145 2.925 4.35 4.35 0 0 0 4.145-2.925 1.038 1.038 0 0 1 .81-.688l.043-.007v12.928l-4.998-4.998Zm10.958-18.305a4.4 4.4 0 0 0-2.5 6.037c.292.611-.048 1.05-.21 1.21a1.042 1.042 0 0 1-.935.283l-.366-.115c-.152-.068-.312-.105-.469-.153-.116-.037-.23-.087-.348-.115-.163-.037-.332-.047-.498-.065-.135-.015-.267-.044-.402-.047-.162-.003-.322.023-.482.037-.138.013-.278.01-.416.036a4.34 4.34 0 0 0-.867.257l-.003.002c-.074.03-.135.078-.207.111-.207.1-.415.199-.603.329a4.44 4.44 0 0 0-.622.531c-.022.022-.05.039-.072.062-.42.442-.748.972-.956 1.557-.224.636-.775.705-1.002.705-.227 0-.778-.069-1.005-.709a4.39 4.39 0 0 0-.957-1.556c-.016-.019-.038-.03-.056-.049a4.429 4.429 0 0 0-.639-.545c-.18-.125-.381-.218-.58-.315-.078-.038-.148-.091-.23-.125l-.001-.001c-.035-.015-.072-.019-.107-.032a4.39 4.39 0 0 0-.742-.22c-.203-.04-.405-.048-.608-.06-.075-.003-.15-.022-.225-.022l-.013.002c-.624-.002-1.229.12-1.745.372l-.379.118a1.039 1.039 0 0 1-.963-.277c-.162-.16-.502-.596-.21-1.211a4.404 4.404 0 0 0-2.5-6.035c-.638-.224-.707-.775-.707-1.002 0-.227.069-.778.709-1.005a4.4 4.4 0 0 0 2.5-6.037c-.292-.611.048-1.05.21-1.21.16-.161.595-.498 1.211-.21a4.404 4.404 0 0 0 6.035-2.5c.224-.636.775-.705 1.002-.705.227 0 .778.069 1.005.709a4.404 4.404 0 0 0 6.037 2.5c.61-.295 1.051.048 1.21.21.161.16.501.596.21 1.211a4.404 4.404 0 0 0 2.5 6.035c.636.224.705.775.705 1.002 0 .227-.069.778-.709 1.005Z"/></g></svg>