<svg width="100" height="100" fill="none" xmlns="http://www.w3.org/2000/svg"><g fill="#1B1821" clip-path="url(#a)"><path d="M60.294 83.333a5.84 5.84 0 0 0-5.833 5.833A5.84 5.84 0 0 0 60.294 95a5.84 5.84 0 0 0 5.834-5.834 5.84 5.84 0 0 0-5.834-5.833Zm0 8.334a2.503 2.503 0 0 1-2.5-2.5c0-1.379 1.122-2.5 2.5-2.5 1.379 0 2.5 1.121 2.5 2.5 0 1.378-1.121 2.5-2.5 2.5Zm7.502-30A6.674 6.674 0 0 0 74.462 55a6.674 6.674 0 0 0-6.666-6.667A6.674 6.674 0 0 0 61.129 55a6.672 6.672 0 0 0 6.667 6.667Zm0-10A3.337 3.337 0 0 1 71.129 55a3.337 3.337 0 0 1-3.333 3.333A3.337 3.337 0 0 1 64.462 55a3.337 3.337 0 0 1 3.334-3.334ZM27.794 20c.427 0 .853-.164 1.178-.49l3.334-3.333a1.665 1.665 0 0 0 0-2.356 1.665 1.665 0 0 0-2.357 0l-3.333 3.333A1.665 1.665 0 0 0 27.794 20Z"/><path d="M87.795 49.58a5.454 5.454 0 0 0-1.608-3.882l-.928-.929a7.486 7.486 0 0 0 2.535-5.603c0-4.135-3.365-7.5-7.5-7.5-.304 0-.604.03-.9.067.036-.299.066-.596.066-.9 0-4.136-3.365-7.5-7.5-7.5-.303 0-.603.03-.9.066.037-.298.067-.595.067-.9 0-4.135-3.365-7.5-7.5-7.5-.304 0-.604.03-.9.066.036-.298.066-.595.066-.9 0-4.135-3.365-7.5-7.5-7.5A7.49 7.49 0 0 0 49.69 9.2l-1.324-1.323-6.271-6.272a5.493 5.493 0 0 0-7.764 0l-20.52 20.52a5.502 5.502 0 0 0 0 7.766l6.272 6.272 8.183 8.183c-2.26 1.293-3.805 3.702-3.805 6.487a7.496 7.496 0 0 0 3.362 6.247c.101.135.22.268.378.403L46.128 75.34v2.994h-3.333v21.667h43.334V78.335h-3.334v-5.05c3.189-2.702 5-6.587 5-10.785 0-2.9-.905-5.717-2.56-8.087l.952-.952a5.454 5.454 0 0 0 1.608-3.882Zm-3.333-10.414c0 1.28-.59 2.465-1.562 3.245l-5.852-5.852a4.165 4.165 0 0 1 3.246-1.561 4.174 4.174 0 0 1 4.168 4.168Zm-8.334-8.333c0 1.28-.59 2.465-1.561 3.245l-5.852-5.852a4.165 4.165 0 0 1 3.245-1.562 4.174 4.174 0 0 1 4.169 4.168Zm-8.333-8.334c0 1.28-.59 2.465-1.562 3.245l-5.851-5.852a4.165 4.165 0 0 1 3.245-1.561 4.174 4.174 0 0 1 4.168 4.168Zm-12.5-12.5a4.17 4.17 0 0 1 4.167 4.166c0 1.28-.59 2.466-1.562 3.246l-5.852-5.852a4.17 4.17 0 0 1 3.247-1.56ZM16.167 27.536a2.163 2.163 0 0 1 0-3.052l20.52-20.52c.21-.209.453-.365.71-.47.117-.049.25-.047.373-.074a2.1 2.1 0 0 1 .886 0c.124.027.255.025.372.074.258.105.5.261.71.47l3.915 3.915-23.57 23.57-3.915-3.913Zm29.843-17.3 1.963 1.963 8.334 8.333.954.955 7.379 7.379.955.955 7.379 7.378.954.955 8.334 8.334 1.567 1.566a2.158 2.158 0 0 1 0 3.05l-.729.73-19.79 19.792a2.16 2.16 0 0 1-3.052 0L46.966 58.333h1.66c4.136 0 7.5-3.365 7.5-7.5s-3.364-7.5-7.5-7.5H31.964l-9.526-9.527 23.572-23.57ZM31.06 46.768l.692-.078c.068-.01.136-.025.206-.025h16.667a4.17 4.17 0 0 1 4.167 4.167 4.17 4.17 0 0 1-4.167 4.166H31.96a4.17 4.17 0 0 1-4.167-4.166 4.173 4.173 0 0 1 3.268-4.064Zm15.067 49.898v-15h14.044c5.121 0 9.29 4.168 9.29 9.29v5.71H46.128Zm36.667 0h-10v-5.71c0-3.677-1.59-6.98-4.107-9.29h14.107v15Zm.042-39.854a10.783 10.783 0 0 1 1.625 5.687c0 3.425-1.58 6.576-4.337 8.651l-.663.5v6.682H49.46v-4.53l-.589-.498a5.335 5.335 0 0 0-.3-.234L33.776 58.33h8.475L57.9 73.981a5.477 5.477 0 0 0 3.882 1.606 5.475 5.475 0 0 0 3.883-1.606l17.172-17.168Z"/></g><defs><clipPath id="a"><path fill="#fff" d="M0 0h100v100H0z"/></clipPath></defs></svg>