<svg width="100" height="100" fill="none" xmlns="http://www.w3.org/2000/svg"><g clip-path="url(#a)"><path d="M99.14 45.63 84.266 31.82V9.192H67.133v6.718L49.999 0 .86 45.63a1.716 1.716 0 0 0-.089 2.423 1.717 1.717 0 0 0 2.423.089l5.687-5.28V100h82.241V42.86l5.686 5.28c.33.307.749.458 1.167.458a1.714 1.714 0 0 0 1.165-2.968ZM70.56 12.62h10.28v16.018l-10.28-9.545V12.62ZM39.72 96.573V60.485c0-.886.719-1.605 1.605-1.605h17.35c.885 0 1.605.72 1.605 1.605v36.088H39.72Zm47.973 0H63.706V60.485a5.037 5.037 0 0 0-5.032-5.032h-17.35a5.037 5.037 0 0 0-5.031 5.032v36.088H12.306V39.678L49.999 4.676l24.467 22.719 9.8 9.1 3.427 3.181v56.897Z" fill="#1B1821"/></g><defs><clipPath id="a"><path fill="#fff" d="M0 0h100v100H0z"/></clipPath></defs></svg>