<svg width="101" height="100" fill="none" xmlns="http://www.w3.org/2000/svg"><g fill="#1B1821" clip-path="url(#a)"><path d="M35.535 48.295c-3.785-4.275-8.832-6.628-14.214-6.628-5.381 0-10.428 2.353-14.211 6.628-7.687 8.685-7.687 22.814 0 31.499l14.21 16.055 14.212-16.055c7.688-8.685 7.688-22.814.002-31.499Zm-2.497 29.289L21.323 90.819 9.606 77.584c-6.61-7.465-6.61-19.614 0-27.079C12.748 46.955 16.91 45 21.321 45c4.412 0 8.575 1.955 11.715 5.505 6.61 7.465 6.61 19.612.002 27.079Zm48.707-36.739 10.773-12.143c5.797-6.534 5.797-17.16 0-23.694C89.65 1.778 85.825 0 81.743 0c-4.08 0-7.907 1.778-10.773 5.008-5.797 6.534-5.797 17.16 0 23.694l10.775 12.143ZM73.463 7.222c2.225-2.509 5.165-3.889 8.28-3.889 3.117 0 6.057 1.38 8.282 3.889 4.713 5.311 4.713 13.955 0 19.266l-8.28 9.335-8.282-9.335c-4.713-5.311-4.713-13.955 0-19.266Zm14.71 83.639a1.666 1.666 0 0 0-1.992 1.26 5.783 5.783 0 0 1-1.105 2.32 1.665 1.665 0 1 0 2.62 2.06 9.182 9.182 0 0 0 1.737-3.646 1.667 1.667 0 0 0-1.26-1.994ZM53.825 51.667a5.862 5.862 0 0 1-2.087-.384 1.673 1.673 0 0 0-2.151.964 1.67 1.67 0 0 0 .963 2.151c1.043.397 2.142.6 3.272.602h.595c.921 0 1.666-.745 1.666-1.667 0-.921-.745-1.666-1.666-1.666h-.592Zm-3.957-10.54c.301 0 .605-.082.88-.252a5.752 5.752 0 0 1 2.423-.838 1.67 1.67 0 0 0 1.475-1.84 1.67 1.67 0 0 0-1.84-1.475 9.038 9.038 0 0 0-3.823 1.323 1.667 1.667 0 0 0 .885 3.082Zm-19.262 55.54h-3.333c-.922 0-1.667.745-1.667 1.667 0 .921.745 1.666 1.667 1.666h3.333a1.666 1.666 0 1 0 0-3.333Zm29.882-30c-.144 0-.285.003-.427.01a1.666 1.666 0 0 0 .067 3.332c.023 0 .046 0 .07-.002L63.463 70c.921 0 1.666-.745 1.666-1.666 0-.922-.745-1.667-1.666-1.667h-2.975ZM59.655 40h3.333a1.665 1.665 0 1 0 0-3.333h-3.333c-.922 0-1.667.745-1.667 1.667 0 .921.745 1.666 1.667 1.666ZM80.13 66.667c-.922 0-1.667.745-1.667 1.667 0 .921.745 1.666 1.667 1.666h3.333a1.665 1.665 0 1 0 0-3.333H80.13Zm5.955-13.333c0-.922-.745-1.667-1.667-1.667h-3.333c-.922 0-1.667.745-1.667 1.667 0 .921.745 1.666 1.667 1.666h3.333c.92 0 1.667-.745 1.667-1.666ZM70.13 70h3.333a1.665 1.665 0 1 0 0-3.333H70.13a1.666 1.666 0 1 0 0 3.333Zm2.858-30a1.665 1.665 0 1 0 0-3.333h-3.333c-.922 0-1.667.745-1.667 1.667 0 .921.745 1.666 1.667 1.666h3.333ZM61.085 51.667c-.922 0-1.667.745-1.667 1.667 0 .921.745 1.666 1.667 1.666h3.333a1.665 1.665 0 1 0 0-3.333h-3.333Zm15 1.667c0-.922-.745-1.667-1.667-1.667h-3.333c-.922 0-1.667.745-1.667 1.667 0 .921.745 1.666 1.667 1.666h3.333c.92 0 1.667-.745 1.667-1.666Zm23.458 6.052a1.666 1.666 0 0 0-1.91-1.381 1.665 1.665 0 0 0-1.381 1.91c.047.296.073.598.07.92 0 .56-.08 1.113-.237 1.646a1.666 1.666 0 1 0 3.2.937c.245-.838.37-1.707.37-2.572a8.857 8.857 0 0 0-.112-1.46ZM70.606 96.667h-3.333c-.922 0-1.667.745-1.667 1.667 0 .921.745 1.666 1.667 1.666h3.333a1.666 1.666 0 1 0 0-3.333Zm-10 0h-3.333c-.922 0-1.667.745-1.667 1.667 0 .921.745 1.666 1.667 1.666h3.333a1.666 1.666 0 1 0 0-3.333Zm18.336-13.333c0-.922-.745-1.667-1.667-1.667h-3.333c-.922 0-1.667.745-1.667 1.667 0 .921.745 1.666 1.667 1.666h3.333c.92 0 1.667-.745 1.667-1.666Zm-10 0c0-.922-.745-1.667-1.667-1.667h-3.333c-.922 0-1.667.745-1.667 1.667 0 .921.745 1.666 1.667 1.666h3.333c.92 0 1.667-.745 1.667-1.666Zm11.546 13.333H77.27c-.921 0-1.666.745-1.666 1.667 0 .921.745 1.666 1.666 1.666l3.285-.001.049-1.667v1.667c.921 0 1.608-.745 1.608-1.667 0-.92-.803-1.665-1.725-1.665Zm5.896-8.802a1.666 1.666 0 0 0 1.308-2.697 9.237 9.237 0 0 0-3.131-2.546 1.668 1.668 0 0 0-1.485 2.985 5.845 5.845 0 0 1 1.995 1.623c.33.417.818.635 1.313.635Zm6.357-21.65c-.715.3-1.471.452-2.253.452h-.358c-.922 0-1.667.745-1.667 1.667 0 .921.745 1.666 1.667 1.666h.358a9.1 9.1 0 0 0 3.542-.711 1.667 1.667 0 0 0-1.288-3.073ZM47.214 49.758a1.67 1.67 0 0 0 1.064-2.105 5.825 5.825 0 0 1-.244-2.561 1.665 1.665 0 0 0-1.445-1.862c-.941-.105-1.748.535-1.861 1.445a9.173 9.173 0 0 0 .382 4.02 1.67 1.67 0 0 0 2.104 1.063Zm-6.608 46.909h-3.333c-.922 0-1.667.745-1.667 1.667 0 .921.745 1.666 1.667 1.666h3.333a1.666 1.666 0 1 0 0-3.333Zm16.763-12.343a1.666 1.666 0 0 0 .695-3.182 5.895 5.895 0 0 1-2.047-1.56 1.666 1.666 0 0 0-2.348-.203 1.665 1.665 0 0 0-.203 2.348 9.228 9.228 0 0 0 3.211 2.445c.225.102.46.152.692.152Zm37.707-31.428a9.063 9.063 0 0 0-3.861-1.203 1.666 1.666 0 1 0-.26 3.323c.87.069 1.695.325 2.45.764a1.667 1.667 0 1 0 1.672-2.883Zm-44.47 43.771h-3.333c-.922 0-1.667.745-1.667 1.667 0 .921.745 1.666 1.667 1.666h3.333a1.666 1.666 0 1 0 0-3.333Zm4.152-21.935a5.79 5.79 0 0 1 1.032-2.355 1.667 1.667 0 0 0-2.685-1.975 9.133 9.133 0 0 0-1.622 3.703 1.668 1.668 0 0 0 1.639 1.982 1.677 1.677 0 0 0 1.636-1.355Z"/><path d="M82.155 25c5.053 0 9.167-4.113 9.167-9.166 0-5.054-4.114-9.167-9.167-9.167s-9.167 4.113-9.167 9.167c0 5.053 4.114 9.166 9.167 9.166Zm0-15a5.84 5.84 0 0 1 5.833 5.834 5.84 5.84 0 0 1-5.833 5.833 5.84 5.84 0 0 1-5.833-5.833A5.84 5.84 0 0 1 82.155 10ZM21.321 51.667c-5.515 0-10 4.485-10 10s4.485 10 10 10 10-4.485 10-10-4.485-10-10-10Zm0 16.667a6.673 6.673 0 0 1-6.666-6.667A6.673 6.673 0 0 1 21.32 55a6.673 6.673 0 0 1 6.667 6.667 6.673 6.673 0 0 1-6.667 6.667Z"/></g><defs><clipPath id="a"><path fill="#fff" transform="translate(.5)" d="M0 0h100v100H0z"/></clipPath></defs></svg>