<svg width="101" height="100" fill="none" xmlns="http://www.w3.org/2000/svg"><g clip-path="url(#a)"><path d="M96.317 35.834h-4.15V24.167h-3.334V17.5H42.31l-5.952-8.333H5.053A4.56 4.56 0 0 0 .5 13.72v72.812h.01a4.239 4.239 0 0 0 .87 2.625 4.243 4.243 0 0 0 3.395 1.677h74.598c1.927 0 3.624-1.299 4.084-3.022l17.043-46.73v-.295c0-2.87-1.76-4.953-4.183-4.953Zm-7.484 0H75.5v-1.667a1.666 1.666 0 1 0-3.333 0v1.667h-8.334v-1.667a1.666 1.666 0 1 0-3.333 0v1.667h-8.333v-1.667a1.666 1.666 0 1 0-3.334 0v1.667H40.5v-1.667a1.666 1.666 0 1 0-3.333 0v1.667h-8.334v-1.667a1.666 1.666 0 1 0-3.333 0v1.667h-3.782c-.238 0-.473.02-.703.058a4.327 4.327 0 0 0-2.182 1.065V27.5h70v8.334Zm-80 27.155V37.5h9.492a3.84 3.84 0 0 0-.69 1.355l-.528 1.45L8.833 62.99ZM15.5 34.167h-4.31l.977-.977 3.333-3.333v4.31Zm70-13.333v3.333H16.477l-4.31 4.31v-7.643H85.5ZM3.833 13.72c0-.673.549-1.22 1.22-1.22h29.589l3.571 5H8.833v14.31L5.5 35.144v36.808l-1.667 4.547V13.72Zm76.449 73.085a.944.944 0 0 1-.909.695H4.775a.92.92 0 0 1-.747-.37c-.105-.136-.266-.426-.205-.68L5.5 81.854l15.267-41.855.043-.137a.944.944 0 0 1 .908-.695h74.599c.633 0 .795.91.836 1.365L80.282 86.805Z" fill="#1B1821"/></g><defs><clipPath id="a"><path fill="#fff" transform="translate(.5)" d="M0 0h100v100H0z"/></clipPath></defs></svg>