<svg width="100" height="100" fill="none" xmlns="http://www.w3.org/2000/svg"><path d="M95.19 15.473C93.084 7.673 77.412 0 50 0S6.915 7.673 4.811 15.473c-.152.267-.265.56-.265.89v67.273c0 .295.078.573.213.82C6.906 93.356 26.117 100 50 100c23.83 0 43.01-6.616 45.228-15.484a1.8 1.8 0 0 0 .227-.88V16.364c0-.331-.113-.624-.266-.891ZM91.674 61.79a4.47 4.47 0 0 1-.21.66 6.154 6.154 0 0 1-.68 1.21c-.12.17-.257.337-.4.504a9.884 9.884 0 0 1-.66.713c-.146.144-.308.286-.472.43-.298.26-.609.517-.956.774-.15.11-.31.218-.468.327-.41.284-.84.566-1.31.842-.124.075-.257.145-.386.218a29.38 29.38 0 0 1-1.718.904c-.078.038-.16.074-.24.11-.682.322-1.395.639-2.156.944-.022.01-.044.017-.066.026-4.129 1.649-9.41 3.036-15.565 3.945l-.093.013a98.264 98.264 0 0 1-3.684.47c-.205.023-.421.037-.629.059-1.1.115-2.212.22-3.358.304-.524.038-1.073.056-1.605.089-.862.05-1.715.107-2.599.138a125.513 125.513 0 0 1-8.842-.005c-.883-.032-1.736-.09-2.598-.139-.532-.03-1.081-.05-1.605-.089a111.701 111.701 0 0 1-3.358-.303c-.208-.022-.424-.037-.63-.059-1.26-.138-2.487-.296-3.683-.47l-.093-.013c-6.154-.91-11.436-2.297-15.565-3.946-.022-.007-.044-.016-.066-.025a38.61 38.61 0 0 1-2.156-.944c-.078-.038-.162-.074-.24-.11a28.938 28.938 0 0 1-1.718-.904c-.127-.073-.262-.144-.386-.218-.47-.277-.9-.559-1.31-.842-.157-.11-.319-.217-.468-.328a14.981 14.981 0 0 1-.956-.774c-.162-.142-.326-.284-.473-.43a9.464 9.464 0 0 1-.66-.712 7.537 7.537 0 0 1-.398-.504 6.791 6.791 0 0 1-.42-.67 5.624 5.624 0 0 1-.26-.54c-.09-.22-.16-.44-.21-.66-.068-.29-.143-.584-.143-.877 0-.205.024-.41.057-.614.045-.275.02-.55-.057-.81V45.988c.051.047.115.093.168.14.396.35.8.697 1.254 1.031 6.85 5.18 20.546 9.206 40.396 9.206 19.768 0 33.43-3.993 40.308-9.142.549-.4 1.043-.813 1.509-1.233l.002-.002v13.498c-.077.26-.102.535-.057.81.035.203.057.409.057.614 0 .293-.075.587-.144.882Zm.144-37.622v13.498c-.077.26-.102.535-.057.81.035.203.057.409.057.614 0 .293-.075.587-.144.882a4.47 4.47 0 0 1-.21.66 6.154 6.154 0 0 1-.68 1.21c-.12.17-.257.337-.4.504a9.863 9.863 0 0 1-.66.713c-.146.144-.308.285-.472.43-.298.26-.609.517-.956.774-.15.11-.31.218-.468.327-.41.283-.84.565-1.31.842-.124.074-.257.145-.386.218-.542.305-1.107.609-1.718.903-.078.039-.16.075-.24.111-.682.322-1.395.639-2.156.944-.022.01-.044.017-.066.026-4.129 1.649-9.41 3.036-15.565 3.945-.031.004-.062.007-.093.013a99.806 99.806 0 0 1-3.684.47c-.205.023-.421.037-.629.059-1.1.114-2.212.22-3.358.303-.524.039-1.073.057-1.605.09-.862.05-1.715.107-2.599.138a125.513 125.513 0 0 1-8.842-.005c-.883-.032-1.736-.09-2.598-.139-.532-.03-1.081-.05-1.605-.089a108.68 108.68 0 0 1-3.358-.304c-.208-.022-.424-.036-.63-.058-1.26-.138-2.487-.296-3.683-.47-.03-.004-.062-.008-.093-.014-6.154-.908-11.436-2.296-15.565-3.945-.022-.007-.044-.016-.066-.025a38.61 38.61 0 0 1-2.156-.944c-.078-.038-.162-.074-.24-.11a28.997 28.997 0 0 1-1.718-.904c-.127-.073-.262-.144-.386-.219-.47-.276-.9-.558-1.31-.841-.157-.11-.319-.217-.468-.328a14.981 14.981 0 0 1-.956-.774c-.162-.142-.326-.284-.473-.43a9.464 9.464 0 0 1-.66-.712 7.537 7.537 0 0 1-.398-.504 6.791 6.791 0 0 1-.42-.67 5.624 5.624 0 0 1-.26-.54c-.09-.22-.16-.44-.21-.66-.068-.29-.143-.584-.143-.877 0-.206.024-.411.057-.615a1.81 1.81 0 0 0-.057-.809V24.17c.218.198.468.393.704.59.13.108.253.217.39.326.546.43 1.135.853 1.774 1.266.132.085.281.169.42.255.534.332 1.1.658 1.694.978a37.519 37.519 0 0 0 2.76 1.336c.12.053.23.107.351.158.853.362 1.758.707 2.7 1.042.26.093.533.18.8.27.75.254 1.524.495 2.325.73.29.084.573.17.87.25 1.063.296 2.161.575 3.314.834.158.036.33.065.49.1a82.744 82.744 0 0 0 4.268.809c1.031.169 2.093.323 3.182.465.28.036.547.078.831.113 1.353.163 2.753.303 4.19.423.355.03.724.052 1.085.077 1.15.084 2.327.153 3.53.207.439.02.875.04 1.322.056 1.567.053 3.164.091 4.818.091 1.655 0 3.251-.038 4.819-.09.445-.017.881-.037 1.321-.057a126.17 126.17 0 0 0 3.531-.207c.36-.027.728-.047 1.084-.077a110.67 110.67 0 0 0 4.19-.423c.285-.035.552-.077.832-.113a97.978 97.978 0 0 0 4.296-.654 82.744 82.744 0 0 0 3.155-.62c.16-.035.33-.066.489-.1 1.153-.259 2.25-.54 3.314-.833.297-.082.58-.167.87-.251a59.696 59.696 0 0 0 2.325-.73c.267-.09.54-.177.8-.27.942-.335 1.849-.68 2.7-1.042.122-.05.23-.105.35-.158a37.982 37.982 0 0 0 2.761-1.336c.594-.319 1.16-.644 1.694-.979.138-.085.288-.169.42-.254a23.03 23.03 0 0 0 1.773-1.265c.136-.11.258-.219.391-.328.236-.196.485-.39.704-.589ZM50 3.636c24.646 0 41.819 7.186 41.819 13.637 0 6.45-17.173 13.636-41.819 13.636-24.645 0-41.818-7.185-41.818-13.636S25.355 3.636 50 3.636Zm41.819 79.46c-.026.08-.044.162-.059.246C90.73 89.63 73.702 96.364 50 96.364c-23.701 0-40.729-6.733-41.76-13.022a1.982 1.982 0 0 0-.058-.238V67.805c.051.048.115.093.168.14.396.35.8.697 1.254 1.031 6.85 5.18 20.546 9.206 40.396 9.206 19.768 0 33.43-3.993 40.308-9.142.549-.4 1.043-.813 1.509-1.233l.002-.002v15.291Z" fill="#1B1821"/></svg>