<svg width="101" height="100" fill="none" xmlns="http://www.w3.org/2000/svg"><g clip-path="url(#a)"><path d="M91.728 5.263c-4.837 0-8.772 3.935-8.772 8.772v3.979L14.472 39.728c-.321-3.576-3.298-6.395-6.954-6.395A7.025 7.025 0 0 0 .5 40.35v19.3a7.025 7.025 0 0 0 7.018 7.017c3.656 0 6.633-2.82 6.954-6.394l5.909 1.873c-.888.798-1.602 1.807-1.997 3.021a6.974 6.974 0 0 0 .432 5.353 6.951 6.951 0 0 0 4.08 3.486l25.036 8.11a6.975 6.975 0 0 0 5.349-.431 6.96 6.96 0 0 0 3.598-7.965l26.077 8.267v3.978c0 4.837 3.935 8.772 8.772 8.772s8.772-3.935 8.772-8.772v-71.93c0-4.836-3.935-8.771-8.772-8.771ZM53.433 76.519a3.482 3.482 0 0 1-1.745 2.038 3.49 3.49 0 0 1-2.672.22l-25.037-8.11a3.478 3.478 0 0 1-2.037-1.746 3.475 3.475 0 0 1-.22-2.672 3.516 3.516 0 0 1 4.418-2.258l25.037 8.11a3.51 3.51 0 0 1 2.256 4.418Zm-42.407-16.87a3.512 3.512 0 0 1-3.508 3.508 3.512 3.512 0 0 1-3.51-3.508V40.35a3.512 3.512 0 0 1 3.51-3.508 3.512 3.512 0 0 1 3.508 3.508v19.3Zm3.51-3.039V43.39l68.42-21.694v56.61L14.536 56.61ZM96.99 85.964a5.27 5.27 0 0 1-5.263 5.264 5.27 5.27 0 0 1-5.263-5.264V14.035a5.27 5.27 0 0 1 5.263-5.264 5.27 5.27 0 0 1 5.263 5.264v71.93Z" fill="#1B1821"/></g><defs><clipPath id="a"><path fill="#fff" transform="translate(.5)" d="M0 0h100v100H0z"/></clipPath></defs></svg>