<svg width="100" height="100" fill="none" xmlns="http://www.w3.org/2000/svg"><g clip-path="url(#a)"><path d="M71.429 0C55.675 0 42.858 12.818 42.858 28.571a28.415 28.415 0 0 0 4.825 15.865L.523 91.595a1.784 1.784 0 0 0 1.263 3.048 1.78 1.78 0 0 0 1.263-.523l7.666-7.666 13.023 13.023a1.781 1.781 0 0 0 2.525 0 1.784 1.784 0 0 0 0-2.525L13.24 83.929l6.403-6.404 9.452 9.452a1.78 1.78 0 0 0 2.525 0 1.784 1.784 0 0 0 0-2.525L22.168 75l6.404-6.404L41.595 81.62a1.78 1.78 0 0 0 2.525 0 1.784 1.784 0 0 0 0-2.525L31.097 66.07l18.79-18.789c5.242 6.027 12.946 9.86 21.542 9.86 15.754 0 28.571-12.817 28.571-28.57C100 12.817 87.183 0 71.429 0Zm0 53.571c-13.786 0-25-11.214-25-25 0-13.785 11.214-25 25-25s25 11.215 25 25c0 13.786-11.214 25-25 25Z" fill="#1B1821"/></g><defs><clipPath id="a"><path fill="#fff" d="M0 0h100v100H0z"/></clipPath></defs></svg>