<svg width="101" height="100" fill="none" xmlns="http://www.w3.org/2000/svg"><g fill="#1B1821" clip-path="url(#a)"><path d="M50.5 0C22.93 0 .5 22.429.5 50s22.43 50 50 50 50-22.429 50-50-22.43-50-50-50Zm0 96.154C25.052 96.154 4.346 75.448 4.346 50c0-25.448 20.706-46.154 46.154-46.154 25.448 0 46.154 20.706 46.154 46.154 0 25.448-20.706 46.154-46.154 46.154Z"/><path d="m74.061 29.493-29.556 33.25L26.7 48.498a1.924 1.924 0 0 0-2.401 3.004l19.23 15.385a1.92 1.92 0 0 0 1.202.421c.531 0 1.06-.22 1.439-.646l30.769-34.615a1.92 1.92 0 0 0-.16-2.714 1.922 1.922 0 0 0-2.717.16Z"/></g><defs><clipPath id="a"><path fill="#fff" transform="translate(.5)" d="M0 0h100v100H0z"/></clipPath></defs></svg>