<svg width="100" height="100" fill="none" xmlns="http://www.w3.org/2000/svg"><g fill="#1B1821"><path d="M50.773 38.292c5.14 0 9.32-4.143 9.32-9.232 0-5.09-4.18-9.233-9.32-9.233-5.14 0-9.322 4.143-9.322 9.233 0 5.09 4.181 9.232 9.322 9.232Zm0-15.827c3.67 0 6.658 2.958 6.658 6.595 0 3.636-2.987 6.594-6.658 6.594-3.672 0-6.659-2.958-6.659-6.594 0-3.637 2.987-6.595 6.659-6.595Z"/><path d="m50.537 76.22 20.429-29.223c7.662-10.119 6.553-26.748-2.372-35.587C63.771 6.63 57.358 4 50.537 4c-6.82 0-13.233 2.631-18.057 7.408-8.925 8.84-10.035 25.471-2.402 35.548l20.46 29.264ZM34.363 13.273c4.32-4.278 10.065-6.635 16.174-6.635 6.11 0 11.853 2.357 16.174 6.635 8.055 7.979 9.047 22.998 2.095 32.18L50.537 71.587 32.24 45.414c-6.924-9.143-5.932-24.163 2.124-32.14Z"/></g><path d="M4 71.01c7.923 12.066 13.478 11.89 19.809 5.528 7.077-6.74 11.084-7.45 18.488 0 7.412 5.736 11.264 6.053 17.607 0 6.846-7.454 10.617-7.314 17.168 0C84.15 82.92 89.837 83.578 96 71.01" stroke="#1B1821" stroke-width="2"/><path d="M4 78.01c7.923 12.066 13.478 11.89 19.809 5.528 7.077-6.74 11.084-7.45 18.488 0 7.412 5.736 11.264 6.053 17.607 0 6.846-7.454 10.617-7.314 17.168 0C84.15 89.92 89.837 90.578 96 78.01" stroke="#1B1821" stroke-width="2"/><path d="M4 85.01c7.923 12.066 13.478 11.89 19.809 5.528 7.077-6.74 11.084-7.45 18.488 0 7.412 5.736 11.264 6.053 17.607 0 6.846-7.454 10.617-7.314 17.168 0C84.15 96.92 89.837 97.578 96 85.01" stroke="#1B1821" stroke-width="2"/></svg>