<svg width="101" height="100" fill="none" xmlns="http://www.w3.org/2000/svg"><path d="M98.507 13.442C98.507 4.616 74.356 0 50.5 0S2.495 4.616 2.495 13.442c0 2 1.25 3.78 3.449 5.344L38.98 63.988v33.658c0 .826.491 1.56 1.252 1.88l1.317.472 20.473-20.475v-15.53l33-45.157-.002-.023c2.22-1.57 3.487-3.36 3.487-5.371ZM50.5 3.84c26.96 0 44.165 5.686 44.165 9.602 0 .81-.775 1.695-2.18 2.59l-.097-.012.033.052c-5.448 3.42-20.618 6.97-41.921 6.97-21.324 0-36.504-3.556-41.936-6.98l.033-.051-.792-.47c-.942-.726-1.47-1.439-1.47-2.1 0-3.915 17.205-9.6 44.165-9.6Zm7.68 74.095L42.82 93.296V65.288h15.362v12.647Zm.95-16.488H41.873l-28.67-39.236c9.26 3.086 23.326 4.672 37.298 4.672 13.972 0 28.035-1.586 37.299-4.67L59.13 61.447Z" fill="#1B1821"/></svg>