<svg width="30" height="30" fill="none" xmlns="http://www.w3.org/2000/svg"><path d="M23.75 12.532V6.25c0-1.379-1.121-2.5-2.5-2.5H2.5A2.502 2.502 0 0 0 0 6.25v12.5c0 1.379 1.121 2.5 2.5 2.5h14.017c.818 2.881 3.468 5 6.608 5a6.871 6.871 0 0 0 3.438-.92.625.625 0 1 0-.626-1.082 5.624 5.624 0 0 1-2.812.752 5.631 5.631 0 0 1-5.625-5.625 5.631 5.631 0 0 1 5.625-5.625 5.631 5.631 0 0 1 5.625 5.625V20a1.251 1.251 0 0 1-2.5 0v-2.5a.625.625 0 0 0-1.056-.45 3.1 3.1 0 0 0-2.069-.8A3.129 3.129 0 0 0 20 19.375a3.129 3.129 0 0 0 3.125 3.125c.931 0 1.76-.418 2.333-1.067A2.495 2.495 0 0 0 30 20v-.625c0-3.58-2.751-6.526-6.25-6.843ZM2.5 5h18.75c.026 0 .048.013.073.015l-8.934 7.334c-.318.2-.779.158-.986.031L2.427 5.015C2.453 5.013 2.474 5 2.5 5Zm20 7.532c-3.499.317-6.25 3.263-6.25 6.843 0 .211.013.419.032.625H2.5c-.689 0-1.25-.56-1.25-1.25V6.25c0-.177.04-.344.106-.497l9.31 7.634a2.2 2.2 0 0 0 1.21.363 2.21 2.21 0 0 0 1.267-.403l9.251-7.594c.067.153.106.32.106.497v6.282Zm.625 8.718a1.877 1.877 0 0 1-1.875-1.875c0-1.034.841-1.875 1.875-1.875S25 18.341 25 19.375a1.877 1.877 0 0 1-1.875 1.875Z" fill="#fff"/></svg>