<svg width="30" height="30" fill="none" xmlns="http://www.w3.org/2000/svg"><g clip-path="url(#a)" fill="#fff"><path d="M21.342 11.93a3.978 3.978 0 0 1 0-7.953 3.978 3.978 0 0 1 0 7.953Zm0-6.628a2.66 2.66 0 0 0-2.651 2.651 2.66 2.66 0 0 0 2.651 2.652 2.66 2.66 0 0 0 2.651-2.652 2.66 2.66 0 0 0-2.651-2.65Z"/><path d="m21.342 18.442-5.418-4.664a8 8 0 0 1-2.535-5.824C13.389 3.57 16.959 0 21.342 0c4.383 0 7.954 3.57 7.954 7.954 0 2.187-.912 4.3-2.51 5.799l-5.444 4.69Zm0-17.116a6.637 6.637 0 0 0-6.628 6.628 6.55 6.55 0 0 0 2.096 4.83l4.532 3.902 4.557-3.919a6.57 6.57 0 0 0 2.071-4.813 6.637 6.637 0 0 0-6.628-6.628ZM4.209 30l-.936-.936 1.375-1.375a2.682 2.682 0 0 0 .787-1.906c0-.655-.24-1.284-.663-1.773L2.56 21.483a7.072 7.072 0 0 1-1.765-4.68 7.075 7.075 0 0 1 3.298-6l4.772-3.032.713 1.119-4.773 3.032a5.732 5.732 0 0 0-2.684 4.88c0 1.4.506 2.76 1.433 3.811l2.212 2.527c.639.73.995 1.674.995 2.643 0 1.077-.414 2.08-1.177 2.842L4.21 30Z"/><path d="M25.32 29.827h-1.326v-.506a7.962 7.962 0 0 0-5.344-7.514l-7.084-2.46a4.193 4.193 0 0 1-1.59-6.927l1.333-1.334.937.936-1.335 1.334a2.874 2.874 0 0 0 1.094 4.739l7.084 2.47a9.276 9.276 0 0 1 6.23 8.765v.497Z"/></g><defs><clipPath id="a"><path fill="#fff" d="M0 0h30v30H0z"/></clipPath></defs></svg>