<svg width="30" height="30" fill="none" xmlns="http://www.w3.org/2000/svg"><g clip-path="url(#a)" fill="#fff"><path d="m19.617 13.652-6.627-3.626a1.207 1.207 0 0 0-1.205.02 1.206 1.206 0 0 0-.597 1.048v7.19c0 .433.221.824.593 1.045a1.215 1.215 0 0 0 1.201.028l6.628-3.564a1.217 1.217 0 0 0 .007-2.14Zm-6.671 3.728v-5.374l4.954 2.71-4.954 2.664Z"/><path d="m29.78 8.996-.002-.014c-.025-.241-.278-2.39-1.323-3.482-1.206-1.285-2.575-1.44-3.233-1.516a7.89 7.89 0 0 1-.149-.017l-.052-.006c-3.966-.288-9.956-.328-10.016-.328h-.01c-.06 0-6.05.04-10.052.328l-.052.006-.141.016c-.65.076-2.004.232-3.214 1.563C.54 6.627.254 8.73.224 8.965l-.003.03A61.196 61.196 0 0 0 0 13.89v2.244c0 2.402.212 4.794.22 4.895l.002.015c.026.237.278 2.346 1.318 3.439 1.134 1.242 2.57 1.406 3.341 1.494.122.014.227.026.299.039l.07.01c2.29.217 9.469.325 9.773.329h.019c.06 0 6.049-.04 10.015-.328l.052-.006.169-.018c.646-.07 1.993-.212 3.186-1.525.995-1.081 1.283-3.183 1.312-3.419l.003-.03c.01-.101.221-2.493.221-4.895V13.89c0-2.402-.212-4.794-.22-4.894Zm-1.538 7.138c0 2.223-.194 4.512-.213 4.722-.074.58-.377 1.909-.862 2.436-.747.821-1.515.903-2.075.962l-.187.021c-3.836.278-9.6.32-9.865.322-.298-.004-7.372-.113-9.593-.319a7.838 7.838 0 0 0-.366-.047c-.657-.076-1.556-.179-2.248-.94l-.016-.017c-.476-.496-.771-1.74-.846-2.41a61.433 61.433 0 0 1-.213-4.73V13.89c0-2.22.194-4.507.212-4.721.09-.682.398-1.932.863-2.436.77-.847 1.582-.941 2.119-1.003l.143-.017c3.892-.28 9.697-.32 9.905-.322.208.001 6.011.043 9.868.322l.155.018c.552.063 1.387.158 2.153.975l.007.008c.476.496.77 1.761.846 2.446.013.15.213 2.471.213 4.73v2.244Z"/></g><defs><clipPath id="a"><path fill="#fff" d="M0 0h30v30H0z"/></clipPath></defs></svg>