<svg width="30" height="30" fill="none" xmlns="http://www.w3.org/2000/svg"><g clip-path="url(#a)" fill="#fff"><path d="M21.88 0H8.12C3.644 0 0 3.643 0 8.12v13.76C0 26.357 3.643 30 8.12 30h13.76c4.477 0 8.12-3.643 8.12-8.12V8.12C30 3.644 26.357 0 21.88 0Zm6.361 21.88a6.369 6.369 0 0 1-6.362 6.361H8.121a6.369 6.369 0 0 1-6.362-6.361V8.12A6.37 6.37 0 0 1 8.12 1.76h13.758a6.369 6.369 0 0 1 6.362 6.362V21.88Z"/><path d="M15 6.797c-4.523 0-8.203 3.68-8.203 8.203s3.68 8.203 8.203 8.203 8.203-3.68 8.203-8.203S19.523 6.797 15 6.797Zm0 14.647A6.452 6.452 0 0 1 8.556 15 6.452 6.452 0 0 1 15 8.556 6.452 6.452 0 0 1 21.444 15 6.451 6.451 0 0 1 15 21.444Zm8.399-17.559a2.427 2.427 0 0 0-2.424 2.424A2.427 2.427 0 0 0 23.4 8.733a2.427 2.427 0 0 0 2.424-2.424A2.427 2.427 0 0 0 23.4 3.885Zm0 3.089a.666.666 0 1 1 .002-1.332.666.666 0 0 1-.002 1.332Z"/></g><defs><clipPath id="a"><path fill="#fff" d="M0 0h30v30H0z"/></clipPath></defs></svg>