<svg width="30" height="30" fill="none" xmlns="http://www.w3.org/2000/svg"><g clip-path="url(#a)"><path d="M29.413 2.458a1.813 1.813 0 0 0-1.79-.385L1.243 10.77a1.798 1.798 0 0 0-1.242 1.634 1.801 1.801 0 0 0 1.083 1.745l6.524 2.854 1.968 9.128c.082.38.274.717.682.821.412.105.704-.12 1.011-.35l4.841-3.625 5.66 4.63a1.8 1.8 0 0 0 1.728.314 1.8 1.8 0 0 0 1.181-1.3l5.272-22.412a1.813 1.813 0 0 0-.54-1.75Zm-17.721 16.18a.237.237 0 0 0-.01.026l-1.09 3.812-1.218-5.648 8.374-4.652-5.855 6.121a.882.882 0 0 0-.201.34Zm.346 5.186.496-1.731.474-1.657 1.699 1.39-2.669 1.998Zm16.199-20.02-5.272 22.413c-.002.01-.006.026-.032.035-.025.008-.038-.002-.046-.009l-6.193-5.067-2.87-2.349 9.218-9.638a.881.881 0 0 0-1.064-1.38l-13.65 7.584-6.537-2.86c-.02-.008-.03-.013-.029-.047.002-.034.013-.037.034-.044l26.378-8.695c.013-.005.027-.01.048.01s.018.034.015.047Z" fill="#fff"/></g><defs><clipPath id="a"><path fill="#fff" d="M0 0h30v30H0z"/></clipPath></defs></svg>