<svg width="25" height="27" fill="none" xmlns="http://www.w3.org/2000/svg"><rect width="24.429" height="27" rx="12.214" fill="#fff"/><g opacity=".75"><path opacity=".3" fill-rule="evenodd" clip-rule="evenodd" d="m15.223 5.908 2.742 1.638v9.457l-2.742 1.803V5.908Z" fill="#FC9702"/></g><g opacity=".48"><path opacity=".45" fill-rule="evenodd" clip-rule="evenodd" d="m6.429 9.239 2.776-1.456v12.325l-2.776-1.651V9.239Z" fill="#FC9702"/></g><path fill-rule="evenodd" clip-rule="evenodd" d="m12.185 14.15-2.86 1.609-2.896-1.643v-6.4L12.185 4.5l3.038 1.658v3.25l-3.038-1.691-2.86 1.642v3.183l2.86 1.608Z" fill="url(#a)"/><path fill-rule="evenodd" clip-rule="evenodd" d="m12.185 14.15-2.86 1.609-2.896-1.643v-6.4L12.185 4.5l3.038 1.658v3.25l-3.038-1.691-2.86 1.642v3.183l2.86 1.608Z" fill="#000" fill-opacity=".2"/><path fill-rule="evenodd" clip-rule="evenodd" d="m12.245 11.825 2.86-1.696L18 11.825V18.5l-5.755 3.356-3.039-1.747v-3.356l3.075 1.782 2.824-1.73v-3.321l-2.86-1.66Z" fill="url(#b)"/><path fill-rule="evenodd" clip-rule="evenodd" d="m12.245 11.825 2.86-1.696L18 11.825V18.5l-5.755 3.356-3.039-1.747v-3.356l3.075 1.782 2.824-1.73v-3.321l-2.86-1.66Z" fill="#000" fill-opacity=".2"/><defs><linearGradient id="a" x1="6.429" y1="15.759" x2="15.223" y2="15.759" gradientUnits="userSpaceOnUse"><stop stop-color="#FF6B39"/><stop offset=".35" stop-color="#FF8124"/><stop offset=".78" stop-color="#FC9700"/><stop offset="1" stop-color="#FA0"/></linearGradient><linearGradient id="b" x1="9.206" y1="21.857" x2="18" y2="21.857" gradientUnits="userSpaceOnUse"><stop stop-color="#FF6A37"/><stop offset=".295" stop-color="#FC7614"/><stop offset=".78" stop-color="#FC9700"/><stop offset="1" stop-color="#FA0"/></linearGradient></defs></svg>