<svg width="155" height="8" viewBox="0 0 155 8" fill="none" xmlns="http://www.w3.org/2000/svg">
<path d="M0.333333 4C0.333333 5.47276 1.52724 6.66667 3 6.66667C4.47276 6.66667 5.66667 5.47276 5.66667 4C5.66667 2.52724 4.47276 1.33333 3 1.33333C1.52724 1.33333 0.333333 2.52724 0.333333 4ZM154.354 4.35355C154.549 4.15829 154.549 3.84171 154.354 3.64645L151.172 0.464466C150.976 0.269204 150.66 0.269204 150.464 0.464466C150.269 0.659728 150.269 0.976311 150.464 1.17157L153.293 4L150.464 6.82843C150.269 7.02369 150.269 7.34027 150.464 7.53553C150.66 7.7308 150.976 7.7308 151.172 7.53553L154.354 4.35355ZM3 4.5H154V3.5H3V4.5Z" fill="#1B1821"/>
</svg>
