<svg width="830" height="837" viewBox="0 0 830 837" fill="none" xmlns="http://www.w3.org/2000/svg">
<g clip-path="url(#clip0_79_1350)">
<path d="M473.405 54.8035L97.2119 241.064C81.4327 248.877 74.9515 268.069 82.7641 283.849L316.04 754.999C323.852 770.778 343.045 777.259 358.823 769.447L735.018 583.186C750.796 575.374 757.277 556.181 749.464 540.402C738.44 518.137 522.628 82.257 516.189 69.2518C508.377 53.4721 489.184 46.9909 473.405 54.8035ZM98.2441 276.184C94.6576 268.941 97.6327 260.13 104.876 256.544L481.07 70.2834C488.313 66.697 497.123 69.6721 500.71 76.9157L568.632 214.1L166.167 413.368L98.2441 276.184ZM727.354 567.705L351.158 753.966C343.916 757.552 335.106 754.577 331.519 747.334L173.83 428.847L576.295 229.579L733.984 548.065C737.571 555.309 734.596 564.119 727.354 567.705Z" fill="#22ADAA"/>
<path d="M456.161 108.695L211.422 229.87C207.148 231.986 205.398 237.167 207.515 241.442C209.631 245.716 214.812 247.466 219.087 245.349L463.825 124.175C465.056 123.566 466.552 124.071 467.162 125.302L502.892 197.468C503.501 198.698 502.996 200.195 501.766 200.804L196.126 352.133C194.896 352.742 193.4 352.236 192.79 351.005L157.06 278.84C156.451 277.61 156.955 276.112 158.186 275.503L182.906 263.263C187.181 261.147 188.93 255.966 186.814 251.691C184.697 247.417 179.516 245.667 175.242 247.783L150.521 260.023C140.755 264.858 136.744 276.737 141.58 286.504L177.31 358.67C182.145 368.435 194.025 372.448 203.791 367.613L509.431 216.284C519.197 211.449 523.208 199.57 518.372 189.803L482.642 117.638C477.807 107.872 465.927 103.86 456.161 108.695Z" fill="#22ADAA"/>
<path d="M289.447 399.876L245.071 421.847C235.163 426.753 231.094 438.804 236 448.712L257.971 493.088C262.877 502.996 274.929 507.066 284.836 502.161L329.212 480.19C339.12 475.284 343.19 463.232 338.284 453.324L316.313 408.948C311.406 399.04 299.354 394.97 289.447 399.876ZM322.803 460.989C323.483 462.361 322.919 464.031 321.546 464.71L277.171 486.681C275.798 487.361 274.13 486.797 273.45 485.424L251.479 441.048C250.799 439.676 251.363 438.006 252.734 437.327L297.11 415.356C298.483 414.676 300.152 415.24 300.832 416.613L322.803 460.989Z" fill="#22ADAA"/>
<path d="M408.495 340.933L364.119 362.904C354.211 367.81 350.141 379.862 355.047 389.77L377.018 434.146C381.924 444.054 393.976 448.124 403.884 443.218L448.26 421.247C458.168 416.341 462.238 404.289 457.332 394.381L435.361 350.005C430.455 340.097 418.403 336.027 408.495 340.933ZM441.852 402.045C442.532 403.418 441.968 405.087 440.595 405.767L396.22 427.738C394.847 428.418 393.178 427.854 392.498 426.481L370.527 382.105C369.847 380.733 370.411 379.063 371.783 378.384L416.159 356.413C417.532 355.733 419.201 356.297 419.881 357.669L441.852 402.045Z" fill="#22ADAA"/>
<path d="M527.538 281.988L483.162 303.96C473.254 308.865 469.184 320.917 474.09 330.826L496.061 375.201C500.967 385.11 513.019 389.179 522.927 384.274L567.303 362.302C577.211 357.397 581.28 345.345 576.374 335.437L554.403 291.061C549.497 281.153 537.445 277.083 527.538 281.988ZM560.894 343.101C561.574 344.474 561.01 346.143 559.638 346.822L515.263 368.794C513.89 369.473 512.221 368.91 511.541 367.537L489.57 323.161C488.89 321.789 489.454 320.119 490.826 319.44L535.202 297.468C536.575 296.789 538.243 297.353 538.923 298.725L560.894 343.101Z" fill="#22ADAA"/>
<path d="M339.087 500.143L294.711 522.114C284.803 527.02 280.734 539.072 285.64 548.98L307.611 593.356C312.517 603.264 324.569 607.334 334.476 602.428L378.852 580.457C388.76 575.551 392.83 563.499 387.924 553.591L365.952 509.215C361.046 499.308 348.994 495.238 339.087 500.143ZM372.443 561.256C373.122 562.629 372.559 564.298 371.186 564.978L326.81 586.949C325.438 587.629 323.769 587.064 323.09 585.692L301.118 541.316C300.439 539.943 301.003 538.274 302.374 537.595L346.75 515.624C348.122 514.944 349.792 515.508 350.472 516.88L372.443 561.256Z" fill="#22ADAA"/>
<path d="M458.132 441.204L413.756 463.175C403.848 468.081 399.778 480.133 404.683 490.041L426.655 534.417C431.561 544.325 443.613 548.395 453.521 543.489L497.897 521.518C507.805 516.612 511.875 504.56 506.969 494.652L484.997 450.276C480.092 440.368 468.04 436.298 458.132 441.204ZM491.489 502.317C492.168 503.689 491.605 505.359 490.232 506.038L445.856 528.01C444.484 528.689 442.814 528.125 442.135 526.753L420.163 482.377C419.484 481.004 420.048 479.335 421.42 478.655L465.796 456.684C467.168 456.004 468.838 456.568 469.518 457.941L491.489 502.317Z" fill="#22ADAA"/>
<path d="M388.73 600.411L344.354 622.382C334.446 627.288 330.377 639.339 335.283 649.247L357.254 693.623C362.16 703.531 374.212 707.601 384.119 702.696L428.495 680.725C438.403 675.819 442.473 663.767 437.567 653.859L415.596 609.483C410.689 599.575 398.637 595.505 388.73 600.411ZM422.086 661.524C422.766 662.896 422.202 664.566 420.83 665.245L376.454 687.217C375.081 687.896 373.413 687.332 372.733 685.959L350.762 641.584C350.082 640.211 350.646 638.541 352.018 637.862L396.393 615.891C397.766 615.212 399.435 615.775 400.115 617.148L422.086 661.524Z" fill="#22ADAA"/>
<path d="M507.78 541.463L463.404 563.434C453.496 568.34 449.426 580.392 454.332 590.3L476.303 634.676C481.209 644.584 493.261 648.654 503.169 643.748L547.545 621.777C557.453 616.871 561.523 604.819 556.617 594.911L534.646 550.535C529.74 540.627 517.688 536.557 507.78 541.463ZM541.137 602.575C541.817 603.948 541.253 605.617 539.881 606.297L495.505 628.268C494.132 628.948 492.463 628.384 491.783 627.012L469.812 582.636C469.132 581.263 469.696 579.594 471.069 578.914L515.444 556.943C516.817 556.263 518.486 556.827 519.166 558.2L541.137 602.575Z" fill="#22ADAA"/>
<path d="M577.184 382.259L532.808 404.23C522.9 409.136 518.83 421.188 523.736 431.096L550.587 485.327C552.704 489.602 557.885 491.352 562.159 489.235C566.434 487.119 568.184 481.938 566.067 477.663L539.216 423.432C538.537 422.059 539.1 420.39 540.473 419.71L584.849 397.739C586.221 397.059 587.89 397.623 588.569 398.996L660.185 543.64C660.865 545.013 660.301 546.682 658.93 547.362L614.554 569.333C613.181 570.012 611.512 569.449 610.832 568.076L583.981 513.845C581.865 509.57 576.684 507.821 572.409 509.937C568.135 512.053 566.385 517.235 568.501 521.509L595.352 575.741C600.258 585.649 612.31 589.719 622.218 584.813L666.594 562.841C676.502 557.936 680.571 545.884 675.665 535.976L604.049 391.332C599.143 381.423 587.091 377.354 577.184 382.259Z" fill="#22ADAA"/>
</g>
<g clip-path="url(#clip1_79_1350)">
<path d="M470.353 67.0769L94.1601 253.337C78.3809 261.15 71.8998 280.343 79.7124 296.122L312.988 767.272C320.801 783.052 339.993 789.533 355.771 781.721L731.966 595.46C747.744 587.648 754.225 568.455 746.413 552.676C735.389 530.41 519.576 94.5304 513.137 81.5252C505.325 65.7455 486.133 59.2644 470.353 67.0769ZM95.1923 288.458C91.6059 281.214 94.581 272.404 101.825 268.817L478.018 82.5569C485.261 78.9704 494.072 81.9456 497.658 89.1891L565.581 226.373L163.115 425.642L95.1923 288.458ZM724.302 579.978L348.107 766.24C340.864 769.826 332.054 766.851 328.467 759.607L170.779 441.121L573.244 241.853L730.932 560.339C734.52 567.582 731.544 576.392 724.302 579.978Z" fill="#1B1821"/>
<path d="M453.109 120.968L208.371 242.143C204.096 244.259 202.346 249.441 204.463 253.715C206.579 257.99 211.76 259.739 216.035 257.623L460.774 136.448C462.004 135.839 463.501 136.344 464.11 137.576L499.841 209.741C500.45 210.971 499.945 212.469 498.715 213.078L193.075 364.406C191.845 365.015 190.348 364.51 189.738 363.279L154.008 291.113C153.399 289.883 153.904 288.385 155.134 287.776L179.854 275.537C184.129 273.42 185.878 268.239 183.762 263.965C181.646 259.69 176.464 257.94 172.19 260.057L147.469 272.296C137.704 277.132 133.692 289.011 138.528 298.778L174.258 370.943C179.094 380.709 190.973 384.721 200.739 379.886L506.379 228.558C516.145 223.723 520.156 211.843 515.32 202.077L479.59 129.911C474.755 120.145 462.875 116.133 453.109 120.968Z" fill="#1B1821"/>
<path d="M286.395 412.149L242.019 434.12C232.111 439.026 228.042 451.078 232.948 460.986L254.919 505.362C259.825 515.27 271.877 519.34 281.784 514.434L326.16 492.463C336.068 487.557 340.138 475.505 335.232 465.597L313.261 421.221C308.354 411.314 296.302 407.244 286.395 412.149ZM319.751 473.262C320.431 474.635 319.867 476.304 318.495 476.984L274.119 498.955C272.746 499.634 271.078 499.07 270.398 497.698L248.427 453.322C247.747 451.949 248.311 450.28 249.683 449.601L294.059 427.629C295.431 426.95 297.101 427.514 297.78 428.886L319.751 473.262Z" fill="#1B1821"/>
<path d="M405.443 353.206L361.067 375.177C351.159 380.083 347.089 392.135 351.995 402.043L373.966 446.419C378.872 456.327 390.924 460.397 400.832 455.491L445.208 433.52C455.116 428.614 459.186 416.562 454.28 406.654L432.309 362.278C427.403 352.37 415.351 348.3 405.443 353.206ZM438.8 414.319C439.48 415.691 438.916 417.361 437.544 418.04L393.168 440.011C391.795 440.691 390.126 440.127 389.446 438.755L367.475 394.379C366.795 393.006 367.359 391.337 368.732 390.657L413.107 368.686C414.48 368.006 416.149 368.57 416.829 369.943L438.8 414.319Z" fill="#1B1821"/>
<path d="M524.486 294.262L480.11 316.233C470.202 321.139 466.132 333.191 471.038 343.099L493.009 387.475C497.915 397.383 509.967 401.453 519.875 396.547L564.251 374.576C574.159 369.67 578.228 357.619 573.322 347.71L551.351 303.335C546.445 293.426 534.393 289.357 524.486 294.262ZM557.842 355.375C558.522 356.747 557.958 358.417 556.587 359.096L512.211 381.067C510.838 381.747 509.169 381.183 508.489 379.81L486.518 335.435C485.838 334.062 486.402 332.393 487.775 331.713L532.15 309.742C533.523 309.062 535.191 309.626 535.871 310.999L557.842 355.375Z" fill="#1B1821"/>
<path d="M336.035 512.417L291.659 534.388C281.751 539.294 277.682 551.345 282.588 561.253L304.559 605.629C309.465 615.537 321.517 619.607 331.424 614.702L375.8 592.731C385.708 587.825 389.778 575.773 384.872 565.865L362.901 521.489C357.994 511.581 345.942 507.511 336.035 512.417ZM369.391 573.53C370.071 574.902 369.507 576.572 368.134 577.251L323.759 599.222C322.386 599.902 320.718 599.338 320.038 597.965L298.067 553.589C297.387 552.217 297.951 550.547 299.322 549.868L343.698 527.897C345.071 527.217 346.74 527.781 347.42 529.154L369.391 573.53Z" fill="#1B1821"/>
<path d="M455.08 453.478L410.704 475.449C400.796 480.355 396.726 492.407 401.632 502.315L423.603 546.691C428.509 556.599 440.561 560.669 450.469 555.763L494.845 533.792C504.753 528.886 508.823 516.834 503.917 506.926L481.946 462.55C477.04 452.642 464.988 448.572 455.08 453.478ZM488.437 514.59C489.117 515.963 488.553 517.632 487.18 518.312L442.805 540.283C441.432 540.963 439.763 540.399 439.083 539.026L417.112 494.65C416.432 493.278 416.996 491.608 418.368 490.929L462.744 468.957C464.117 468.278 465.786 468.842 466.466 470.214L488.437 514.59Z" fill="#1B1821"/>
<path d="M385.678 612.684L341.303 634.655C331.394 639.561 327.326 651.613 332.231 661.521L354.203 705.897C359.108 715.805 371.16 719.875 381.068 714.969L425.443 692.998C435.352 688.092 439.421 676.04 434.516 666.132L412.544 621.756C407.638 611.849 395.585 607.779 385.678 612.684ZM419.035 673.797C419.714 675.17 419.15 676.839 417.778 677.519L373.402 699.49C372.03 700.17 370.361 699.605 369.682 698.233L347.71 653.857C347.031 652.484 347.594 650.815 348.966 650.136L393.342 628.165C394.714 627.485 396.384 628.049 397.063 629.421L419.035 673.797Z" fill="#1B1821"/>
<path d="M504.728 553.736L460.352 575.708C450.444 580.613 446.374 592.665 451.28 602.574L473.251 646.949C478.157 656.858 490.209 660.927 500.117 656.022L544.493 634.05C554.401 629.145 558.471 617.093 553.565 607.184L531.594 562.809C526.688 552.9 514.636 548.831 504.728 553.736ZM538.086 614.849C538.765 616.221 538.201 617.891 536.829 618.57L492.453 640.542C491.08 641.221 489.411 640.658 488.731 639.285L466.76 594.909C466.08 593.537 466.644 591.867 468.017 591.188L512.393 569.216C513.765 568.537 515.435 569.1 516.114 570.473L538.086 614.849Z" fill="#1B1821"/>
<path d="M574.132 394.532L529.757 416.504C519.848 421.409 515.779 433.461 520.684 443.369L547.535 497.601C549.652 501.875 554.833 503.625 559.108 501.509C563.382 499.392 565.132 494.211 563.015 489.936L536.164 435.705C535.485 434.333 536.049 432.663 537.421 431.983L581.797 410.012C583.169 409.333 584.838 409.897 585.517 411.269L657.134 555.914C657.813 557.286 657.25 558.956 655.878 559.635L611.502 581.606C610.13 582.286 608.46 581.722 607.781 580.35L580.93 526.118C578.813 521.844 573.632 520.094 569.357 522.21C565.083 524.327 563.333 529.508 565.45 533.783L592.301 588.014C597.206 597.922 609.258 601.992 619.167 597.086L663.542 575.115C673.451 570.209 677.519 558.158 672.614 548.249L600.997 403.605C596.092 393.697 584.04 389.627 574.132 394.532Z" fill="#1B1821"/>
</g>
<defs>
<clipPath id="clip0_79_1350">
<rect width="589.6" height="589.6" fill="white" transform="translate(21.1118 278.736) rotate(-26.3409)"/>
</clipPath>
<clipPath id="clip1_79_1350">
<rect width="589.6" height="589.6" fill="white" transform="translate(18.0601 291.01) rotate(-26.3409)"/>
</clipPath>
</defs>
</svg>
