<svg width="6" height="253" viewBox="0 0 6 253" fill="none" xmlns="http://www.w3.org/2000/svg">
<path id="Line 7" d="M3 0.333333C1.52724 0.333333 0.333333 1.52724 0.333333 3C0.333333 4.47276 1.52724 5.66667 3 5.66667C4.47276 5.66667 5.66667 4.47276 5.66667 3C5.66667 1.52724 4.47276 0.333333 3 0.333333ZM3.00001 247.333C1.52725 247.333 0.333344 248.527 0.333344 250C0.333344 251.473 1.52725 252.667 3.00001 252.667C4.47277 252.667 5.66668 251.473 5.66668 250C5.66668 248.527 4.47277 247.333 3.00001 247.333ZM2.5 3L2.50001 250L3.50001 250L3.5 3L2.5 3Z" fill="white"/>
</svg>
