<svg width="100" height="100" viewBox="0 0 100 100" fill="none" xmlns="http://www.w3.org/2000/svg">
<g id="home 1" clip-path="url(#clip0_79_1158)">
<path id="Vector" d="M99.1402 45.6301L84.2665 31.8187V9.19215H67.133V15.9102L49.9994 0L0.860369 45.6301C0.168174 46.2743 0.127053 47.3589 0.771275 48.0528C1.41378 48.745 2.49834 48.7844 3.19396 48.1419L8.88059 42.8613V100H36.2943H63.708H91.1217V42.8596L96.8083 48.1402C97.1372 48.4468 97.557 48.5976 97.9751 48.5976C98.436 48.5976 98.8934 48.4143 99.2292 48.0511C99.8735 47.3589 99.8323 46.2743 99.1402 45.6301ZM70.5597 12.6189H80.8398V28.637L70.5597 19.0919V12.6189ZM39.7193 96.5733V60.4849C39.7193 59.5991 40.4389 58.8795 41.3247 58.8795H58.6741C59.5599 58.8795 60.2795 59.5991 60.2795 60.4849V96.5733H39.7193ZM87.6932 96.5733H63.7062V60.4849C63.7062 57.7092 61.4498 55.4528 58.6741 55.4528H41.3247C38.549 55.4528 36.2926 57.7092 36.2926 60.4849V96.5733H12.3056V39.6779L49.9994 4.67575L74.4661 27.3948L84.2665 36.4945L87.6932 39.6762V96.5733Z" fill="#1B1821"/>
</g>
<defs>
<clipPath id="clip0_79_1158">
<rect width="100" height="100" fill="white"/>
</clipPath>
</defs>
</svg>
