<svg width="101" height="100" viewBox="0 0 101 100" fill="none" xmlns="http://www.w3.org/2000/svg">
<g id="diploma 1">
<g id="Group">
<path id="Vector" d="M65.3563 0H11.333V100H89.6663V24.31L65.3563 0ZM66.333 5.69L83.9763 23.3333H66.333V5.69ZM14.6663 96.6667V3.33333H62.9997V26.6667H86.333V96.6667H14.6663Z" fill="#1B1821"/>
<path id="Vector_2" d="M27.9997 28.3333H42.9997C43.9213 28.3333 44.6663 27.5883 44.6663 26.6667C44.6663 25.745 43.9213 25 42.9997 25H27.9997C27.078 25 26.333 25.745 26.333 26.6667C26.333 27.5883 27.078 28.3333 27.9997 28.3333Z" fill="#1B1821"/>
<path id="Vector_3" d="M27.9997 41.6663H36.333C37.2547 41.6663 37.9997 40.9213 37.9997 39.9997C37.9997 39.078 37.2547 38.333 36.333 38.333H27.9997C27.078 38.333 26.333 39.078 26.333 39.9997C26.333 40.9213 27.078 41.6663 27.9997 41.6663Z" fill="#1B1821"/>
<path id="Vector_4" d="M52.9997 41.6663H64.6663C65.588 41.6663 66.333 40.9213 66.333 39.9997C66.333 39.078 65.588 38.333 64.6663 38.333H52.9997C52.078 38.333 51.333 39.078 51.333 39.9997C51.333 40.9213 52.078 41.6663 52.9997 41.6663Z" fill="#1B1821"/>
<path id="Vector_5" d="M43.4833 38.8335C43.1667 39.1335 43 39.5652 43 40.0002C43 40.4335 43.1667 40.8669 43.4833 41.1835C43.7983 41.4835 44.2333 41.6669 44.6667 41.6669C45.1 41.6669 45.5333 41.4986 45.85 41.1669C46.15 40.8652 46.3333 40.4335 46.3333 40.0002C46.3333 39.5652 46.15 39.1319 45.85 38.8169C45.2167 38.2002 44.1 38.2002 43.4833 38.8335Z" fill="#1B1821"/>
<path id="Vector_6" d="M72.9997 41.667C73.433 41.667 73.8663 41.4837 74.183 41.1837C74.483 40.867 74.6663 40.4337 74.6663 40.0003C74.6663 39.5653 74.483 39.132 74.183 38.817C73.5497 38.2003 72.4497 38.2003 71.8163 38.817C71.5147 39.132 71.333 39.5653 71.333 40.0003C71.333 40.4337 71.5147 40.867 71.8163 41.1837C72.1313 41.4837 72.5663 41.667 72.9997 41.667Z" fill="#1B1821"/>
<path id="Vector_7" d="M47.9993 51.667H36.3327C35.411 51.667 34.666 52.412 34.666 53.3337C34.666 54.2553 35.411 55.0003 36.3327 55.0003H47.9993C48.921 55.0003 49.666 54.2553 49.666 53.3337C49.666 52.412 48.921 51.667 47.9993 51.667Z" fill="#1B1821"/>
<path id="Vector_8" d="M27.9997 55C28.433 55 28.8663 54.8167 29.183 54.5167C29.498 54.2 29.6663 53.7667 29.6663 53.3333C29.6663 52.8983 29.498 52.465 29.183 52.15C28.5497 51.5333 27.4497 51.5333 26.8163 52.15C26.4997 52.465 26.333 52.8817 26.333 53.3333C26.333 53.7667 26.5147 54.2 26.8163 54.5167C27.1313 54.8167 27.5663 55 27.9997 55Z" fill="#1B1821"/>
<path id="Vector_9" d="M33.2412 66.9435C29.5912 68.8435 28.3629 72.4785 27.9146 76.2468C27.2246 75.6685 26.5346 75.0918 25.8446 74.5135C24.2112 73.1452 21.8412 75.4902 23.4879 76.8718C25.0462 78.1768 26.6062 79.4835 28.1646 80.7902C29.2612 81.7085 30.9596 81.1285 31.0096 79.6118C31.1312 76.0018 31.3012 71.7085 34.9229 69.8235C36.8262 68.8318 35.1429 65.9535 33.2412 66.9435Z" fill="#1B1821"/>
<path id="Vector_10" d="M44.3242 73.5919C42.0159 74.1269 39.3892 77.0635 37.7642 73.7685C36.8159 71.8452 33.9392 73.5319 34.8859 75.4502C35.7475 77.1985 37.3859 78.4235 39.3342 78.6702C40.3242 78.7952 41.2192 78.6552 42.1475 78.2935C42.8292 78.0285 45.3759 76.1135 45.9259 77.0985C46.9725 78.9719 49.8525 77.2919 48.8042 75.4169C47.9092 73.8135 46.0975 73.1802 44.3242 73.5919Z" fill="#1B1821"/>
<path id="Vector_11" d="M78.408 57.522C78.0197 57.3837 77.848 57.0903 77.7797 56.927C77.713 56.7637 77.6247 56.4337 77.803 56.0603C78.6113 54.357 78.273 52.3953 76.9397 51.0603C75.6047 49.7287 73.6413 49.3887 71.9413 50.197C71.5647 50.3753 71.2347 50.287 71.073 50.2203C70.908 50.152 70.6163 49.9803 70.478 49.592C69.8463 47.8137 68.2197 46.667 66.333 46.667C64.4463 46.667 62.8197 47.8137 62.188 49.592C62.0497 49.9803 61.7563 50.152 61.593 50.2203C61.4313 50.287 61.0997 50.377 60.7263 50.197C59.0247 49.392 57.063 49.727 55.7263 51.0603C54.393 52.3953 54.0547 54.357 54.863 56.0587C55.0397 56.4337 54.953 56.7637 54.8863 56.927C54.818 57.092 54.6463 57.3837 54.258 57.522C52.4797 58.1537 51.333 59.7803 51.333 61.667C51.333 63.5537 52.4797 65.1803 54.258 65.812C54.6463 65.9503 54.818 66.2437 54.8863 66.407C54.953 66.5703 55.0413 66.9003 54.863 67.2737C54.0547 68.977 54.393 70.9387 55.7263 72.2737C56.3713 72.917 57.163 73.3237 57.9997 73.487V94.0237L66.333 85.6903L74.6663 94.0237V73.4853C75.503 73.3237 76.2963 72.9187 76.9397 72.2737C78.273 70.9387 78.6113 68.977 77.803 67.2753C77.6263 66.9003 77.713 66.5703 77.7797 66.407C77.848 66.242 78.0197 65.9503 78.408 65.812C80.1863 65.1803 81.333 63.5537 81.333 61.667C81.333 59.7803 80.1863 58.1537 78.408 57.522ZM66.333 80.977L61.333 85.977V73.047C61.348 73.0487 61.363 73.0503 61.3763 73.0537C61.4597 73.0703 61.5397 73.0903 61.593 73.1137C61.6747 73.1487 61.7897 73.2087 61.8997 73.307C62.0113 73.407 62.1197 73.547 62.188 73.742C62.8197 75.5203 64.4463 76.667 66.333 76.667C68.2197 76.667 69.8463 75.5203 70.478 73.742C70.5463 73.547 70.6547 73.407 70.7663 73.307C70.878 73.207 70.9913 73.147 71.073 73.1137C71.1263 73.092 71.2047 73.0703 71.288 73.0537C71.3013 73.052 71.3163 73.0487 71.3313 73.047V85.9753L66.333 80.977ZM77.2913 62.672C76.1213 63.087 75.1763 63.9837 74.7013 65.132C74.2247 66.2803 74.2563 67.5837 74.7913 68.7087C75.083 69.3203 74.743 69.7587 74.5813 69.9187C74.4497 70.0537 74.113 70.292 73.6463 70.202L73.2797 70.087C73.128 70.0187 72.968 69.982 72.8113 69.9337C72.6947 69.897 72.5813 69.847 72.463 69.8187C72.2997 69.782 72.1313 69.772 71.9647 69.7537C71.8297 69.7387 71.698 69.7103 71.563 69.707C71.4013 69.7037 71.2413 69.7303 71.0813 69.7437C70.943 69.757 70.803 69.7537 70.6647 69.7803C70.3697 69.8353 70.0797 69.9203 69.798 70.037L69.7947 70.0387C69.7213 70.0687 69.6597 70.117 69.588 70.1503C69.3813 70.2503 69.173 70.3487 68.9847 70.4787C68.7597 70.6337 68.5547 70.817 68.363 71.0103C68.3413 71.032 68.313 71.0487 68.2913 71.072C67.8713 71.5137 67.543 72.0437 67.3347 72.6287C67.1113 73.2653 66.5597 73.3337 66.333 73.3337C66.1063 73.3337 65.5547 73.2653 65.328 72.6253C65.1197 72.0387 64.7913 71.5103 64.3713 71.0687C64.3547 71.0503 64.333 71.0387 64.3147 71.0203C64.118 70.8203 63.908 70.6353 63.6763 70.4753C63.4963 70.3503 63.2947 70.257 63.0963 70.1603C63.018 70.122 62.948 70.0687 62.8663 70.0353L62.8647 70.0337C62.8297 70.0187 62.793 70.0153 62.758 70.002C62.5147 69.9087 62.268 69.8303 62.0163 69.782C61.813 69.742 61.6113 69.7337 61.408 69.722C61.333 69.7187 61.258 69.7003 61.183 69.7003C61.178 69.7003 61.1747 69.702 61.1697 69.702C60.5463 69.7003 59.9413 69.822 59.4247 70.0737L59.0463 70.192C58.568 70.3003 58.2197 70.0537 58.083 69.9153C57.9213 69.7553 57.5813 69.3187 57.873 68.7037C58.4063 67.5803 58.4397 66.2787 57.963 65.1287C57.488 63.982 56.543 63.0837 55.373 62.6687C54.7347 62.4453 54.6663 61.8937 54.6663 61.667C54.6663 61.4403 54.7347 60.8887 55.3747 60.662C56.5447 60.247 57.4897 59.3503 57.9647 58.202C58.4413 57.0537 58.4097 55.7503 57.8747 54.6253C57.583 54.0137 57.923 53.5753 58.0847 53.4153C58.2447 53.2537 58.6797 52.917 59.2963 53.2053C60.418 53.7387 61.7213 53.7753 62.8713 53.2953C64.018 52.8203 64.9163 51.8753 65.3313 50.7053C65.5547 50.0687 66.1063 50.0003 66.333 50.0003C66.5597 50.0003 67.1113 50.0687 67.338 50.7087C67.7547 51.8787 68.6497 52.8237 69.798 53.2987C70.9447 53.7787 72.2497 53.7437 73.3747 53.2087C73.9847 52.9137 74.4263 53.257 74.5847 53.4187C74.7463 53.5787 75.0863 54.0153 74.7947 54.6303C74.2613 55.7537 74.228 57.0553 74.7047 58.2053C75.1797 59.352 76.1247 60.2503 77.2947 60.6653C77.9313 60.8887 77.9997 61.4403 77.9997 61.667C77.9997 61.8937 77.9313 62.4453 77.2913 62.672Z" fill="#1B1821"/>
</g>
</g>
</svg>
