<svg width="101" height="100" viewBox="0 0 101 100" fill="none" xmlns="http://www.w3.org/2000/svg">
<g id="megaphone 1" clip-path="url(#clip0_79_1060)">
<path id="Vector" d="M91.7281 5.2627C86.8912 5.2627 82.9561 9.19778 82.9561 14.0346V18.0136L14.4719 39.7276C14.1509 36.1522 11.1737 33.3329 7.51754 33.3329C3.64737 33.3329 0.5 36.4802 0.5 40.3504V59.6487C0.5 63.5188 3.64737 66.6662 7.51754 66.6662C11.1737 66.6662 14.1509 63.8469 14.4719 60.2715L20.3807 62.1452C19.493 62.9434 18.7789 63.9522 18.3842 65.1662C17.8088 66.9452 17.9614 68.8451 18.8158 70.5188C19.6684 72.1925 21.1193 73.4311 22.8965 74.0048L47.9316 82.1153C48.6386 82.3452 49.3667 82.4574 50.0895 82.4574C51.186 82.4574 52.2754 82.1978 53.2807 81.6837C54.9544 80.8311 56.193 79.3802 56.7684 77.6031C57.1807 76.3276 57.2053 74.9908 56.8789 73.7188L82.9561 81.9855V85.9644C82.9561 90.8013 86.8912 94.7364 91.7281 94.7364C96.5649 94.7364 100.5 90.8013 100.5 85.9644V14.0346C100.5 9.19778 96.5649 5.2627 91.7281 5.2627ZM53.4333 76.5188C53.1456 77.4066 52.5246 78.1311 51.6877 78.5574C50.8509 78.9855 49.9 79.0609 49.0158 78.7767L23.9789 70.6662C23.093 70.3785 22.3684 69.7592 21.9421 68.9206C21.514 68.082 21.4351 67.1329 21.7228 66.2487C22.2035 64.7645 23.5842 63.8206 25.0649 63.8206C25.4211 63.8206 25.7842 63.875 26.1404 63.9908L51.1772 72.1013C53.0175 72.6978 54.0298 74.6785 53.4333 76.5188ZM11.0263 59.6487C11.0263 61.5837 9.45263 63.1574 7.51754 63.1574C5.58246 63.1574 4.00877 61.5837 4.00877 59.6487V40.3504C4.00877 38.4153 5.58246 36.8416 7.51754 36.8416C9.45263 36.8416 11.0263 38.4153 11.0263 40.3504V40.8206V59.1802V59.6487ZM14.5351 56.6101V43.3908L82.9561 21.696V78.3065L14.5351 56.6101ZM96.9912 85.9644C96.9912 88.8662 94.6298 91.2276 91.7281 91.2276C88.8263 91.2276 86.4649 88.8662 86.4649 85.9644V83.0978V16.9013V14.0346C86.4649 11.1329 88.8263 8.77147 91.7281 8.77147C94.6298 8.77147 96.9912 11.1329 96.9912 14.0346V85.9644Z" fill="#1B1821"/>
</g>
<defs>
<clipPath id="clip0_79_1060">
<rect width="100" height="100" fill="white" transform="translate(0.5)"/>
</clipPath>
</defs>
</svg>
