<svg width="101" height="100" viewBox="0 0 101 100" fill="none" xmlns="http://www.w3.org/2000/svg">
<g id="route 1" clip-path="url(#clip0_79_1085)">
<g id="Group">
<path id="Vector" d="M35.5347 48.2953C31.7497 44.0203 26.7031 41.667 21.3214 41.667C15.9397 41.667 10.8931 44.0203 7.10973 48.2953C-0.57694 56.9803 -0.57694 71.1087 7.10973 79.7937L21.3214 95.8487L35.5331 79.7937C43.2214 71.1087 43.2214 56.9803 35.5347 48.2953ZM33.0381 77.5837L21.3231 90.8187L9.60639 77.5837C2.99639 70.1187 2.99639 57.9703 9.60639 50.5053C12.7481 46.9553 16.9097 45.0003 21.3214 45.0003C25.7331 45.0003 29.8964 46.9553 33.0364 50.5053C39.6464 57.9703 39.6464 70.117 33.0381 77.5837Z" fill="#1B1821"/>
<path id="Vector_2" d="M81.7446 40.845L92.5179 28.7017C98.3146 22.1683 98.3146 11.5417 92.5179 5.00833C89.6512 1.77833 85.8246 0 81.7429 0C77.6629 0 73.8362 1.77833 70.9696 5.00833C65.1729 11.5417 65.1729 22.1683 70.9696 28.7017L81.7446 40.845ZM73.4629 7.22167C75.6879 4.71333 78.6279 3.33333 81.7429 3.33333C84.8596 3.33333 87.7996 4.71333 90.0246 7.22167C94.7379 12.5333 94.7379 21.1767 90.0246 26.4883L81.7446 35.8233L73.4629 26.4883C68.7496 21.1767 68.7496 12.5333 73.4629 7.22167Z" fill="#1B1821"/>
<path id="Vector_3" d="M88.1731 90.8612C87.2748 90.6596 86.3831 91.2229 86.1815 92.1212C85.9898 92.9712 85.6181 93.7529 85.0765 94.4412C84.5081 95.1646 84.6315 96.2129 85.3565 96.7812C85.6631 97.0212 86.0248 97.1379 86.3848 97.1379C86.8798 97.1379 87.3681 96.9196 87.6965 96.5012C88.5365 95.4346 89.1365 94.1746 89.4331 92.8546C89.6348 91.9546 89.0715 91.0629 88.1731 90.8612Z" fill="#1B1821"/>
<path id="Vector_4" d="M53.825 51.6668C53.1033 51.6651 52.4017 51.5368 51.7383 51.2834C50.885 50.9584 49.9167 51.3868 49.5867 52.2468C49.26 53.1068 49.6917 54.0701 50.55 54.3984C51.5933 54.7951 52.6917 54.9984 53.8217 55.0001H54.4166C55.3383 55.0001 56.0833 54.2551 56.0833 53.3334C56.0833 52.4118 55.3383 51.6668 54.4166 51.6668H53.825Z" fill="#1B1821"/>
<path id="Vector_5" d="M49.8677 41.1268C50.1694 41.1268 50.4727 41.0451 50.7477 40.8751C51.4861 40.4151 52.3027 40.1334 53.1711 40.0368C54.0861 39.9351 54.7461 39.1118 54.6461 38.1968C54.5461 37.2818 53.7277 36.6284 52.8061 36.7218C51.4361 36.8734 50.1494 37.3168 48.9827 38.0451C48.2011 38.5318 47.9644 39.5601 48.4511 40.3418C48.7677 40.8484 49.3111 41.1268 49.8677 41.1268Z" fill="#1B1821"/>
<path id="Vector_6" d="M30.6064 96.667H27.2731C26.3514 96.667 25.6064 97.412 25.6064 98.3337C25.6064 99.2553 26.3514 100 27.2731 100H30.6064C31.5281 100 32.2731 99.2553 32.2731 98.3337C32.2731 97.412 31.5264 96.667 30.6064 96.667Z" fill="#1B1821"/>
<path id="Vector_7" d="M60.4876 66.667C60.3442 66.667 60.2026 66.6703 60.0609 66.677C59.1409 66.7137 58.4276 67.4903 58.4642 68.4103C58.4992 69.307 59.2392 70.0087 60.1276 70.0087C60.1509 70.0087 60.1742 70.0087 60.1976 70.007L63.4626 70.0003C64.3842 70.0003 65.1292 69.2553 65.1292 68.3337C65.1292 67.412 64.3842 66.667 63.4626 66.667H60.4876Z" fill="#1B1821"/>
<path id="Vector_8" d="M59.6549 40.0003H62.9883C63.9099 40.0003 64.6549 39.2553 64.6549 38.3337C64.6549 37.412 63.9099 36.667 62.9883 36.667H59.6549C58.7333 36.667 57.9883 37.412 57.9883 38.3337C57.9883 39.2553 58.7333 40.0003 59.6549 40.0003Z" fill="#1B1821"/>
<path id="Vector_9" d="M80.1296 66.667C79.2079 66.667 78.4629 67.412 78.4629 68.3337C78.4629 69.2553 79.2079 70.0003 80.1296 70.0003H83.4629C84.3846 70.0003 85.1296 69.2553 85.1296 68.3337C85.1296 67.412 84.3846 66.667 83.4629 66.667H80.1296Z" fill="#1B1821"/>
<path id="Vector_10" d="M86.0846 53.3337C86.0846 52.412 85.3396 51.667 84.418 51.667H81.0846C80.163 51.667 79.418 52.412 79.418 53.3337C79.418 54.2553 80.163 55.0003 81.0846 55.0003H84.418C85.338 55.0003 86.0846 54.2553 86.0846 53.3337Z" fill="#1B1821"/>
<path id="Vector_11" d="M70.1296 70.0003H73.4629C74.3846 70.0003 75.1296 69.2553 75.1296 68.3337C75.1296 67.412 74.3846 66.667 73.4629 66.667H70.1296C69.2079 66.667 68.4629 67.412 68.4629 68.3337C68.4629 69.2553 69.2096 70.0003 70.1296 70.0003Z" fill="#1B1821"/>
<path id="Vector_12" d="M72.9883 40.0003C73.9099 40.0003 74.6549 39.2553 74.6549 38.3337C74.6549 37.412 73.9099 36.667 72.9883 36.667H69.6549C68.7333 36.667 67.9883 37.412 67.9883 38.3337C67.9883 39.2553 68.7333 40.0003 69.6549 40.0003H72.9883Z" fill="#1B1821"/>
<path id="Vector_13" d="M61.0846 51.667C60.163 51.667 59.418 52.412 59.418 53.3337C59.418 54.2553 60.163 55.0003 61.0846 55.0003H64.418C65.3396 55.0003 66.0846 54.2553 66.0846 53.3337C66.0846 52.412 65.3396 51.667 64.418 51.667H61.0846Z" fill="#1B1821"/>
<path id="Vector_14" d="M76.0846 53.3337C76.0846 52.412 75.3396 51.667 74.418 51.667H71.0846C70.163 51.667 69.418 52.412 69.418 53.3337C69.418 54.2553 70.163 55.0003 71.0846 55.0003H74.418C75.338 55.0003 76.0846 54.2553 76.0846 53.3337Z" fill="#1B1821"/>
<path id="Vector_15" d="M99.5435 59.3864C99.3968 58.4764 98.5385 57.8548 97.6335 58.0048C96.7235 58.1498 96.1051 59.0064 96.2518 59.9148C96.2985 60.2114 96.3251 60.5131 96.3218 60.8348C96.3218 61.3948 96.2418 61.9481 96.0851 62.4814C95.8268 63.3648 96.3318 64.2914 97.2168 64.5498C97.3735 64.5948 97.5301 64.6164 97.6851 64.6164C98.4068 64.6164 99.0718 64.1464 99.2851 63.4181C99.5301 62.5798 99.6551 61.7114 99.6551 60.8464C99.6585 60.3664 99.6218 59.8748 99.5435 59.3864Z" fill="#1B1821"/>
<path id="Vector_16" d="M70.6064 96.667H67.2731C66.3514 96.667 65.6064 97.412 65.6064 98.3337C65.6064 99.2553 66.3514 100 67.2731 100H70.6064C71.5281 100 72.2731 99.2553 72.2731 98.3337C72.2731 97.412 71.5264 96.667 70.6064 96.667Z" fill="#1B1821"/>
<path id="Vector_17" d="M60.6064 96.667H57.2731C56.3514 96.667 55.6064 97.412 55.6064 98.3337C55.6064 99.2553 56.3514 100 57.2731 100H60.6064C61.5281 100 62.2731 99.2553 62.2731 98.3337C62.2731 97.412 61.5264 96.667 60.6064 96.667Z" fill="#1B1821"/>
<path id="Vector_18" d="M78.9421 83.3337C78.9421 82.412 78.1971 81.667 77.2754 81.667H73.9421C73.0204 81.667 72.2754 82.412 72.2754 83.3337C72.2754 84.2553 73.0204 85.0003 73.9421 85.0003H77.2754C78.1954 85.0003 78.9421 84.2553 78.9421 83.3337Z" fill="#1B1821"/>
<path id="Vector_19" d="M68.9421 83.3337C68.9421 82.412 68.1971 81.667 67.2754 81.667H63.9421C63.0204 81.667 62.2754 82.412 62.2754 83.3337C62.2754 84.2553 63.0204 85.0003 63.9421 85.0003H67.2754C68.1954 85.0003 68.9421 84.2553 68.9421 83.3337Z" fill="#1B1821"/>
<path id="Vector_20" d="M80.4878 96.667H77.2712C76.3495 96.667 75.6045 97.412 75.6045 98.3337C75.6045 99.2553 76.3495 100 77.2712 100L80.5562 99.9987L80.6045 98.332V99.9987C81.5262 99.9987 82.2128 99.2537 82.2128 98.332C82.2128 97.412 81.4095 96.667 80.4878 96.667Z" fill="#1B1821"/>
<path id="Vector_21" d="M86.3844 87.865C86.7444 87.865 87.1094 87.7483 87.4127 87.5083C88.1377 86.9383 88.261 85.89 87.6927 85.1683C86.8544 84.1033 85.7727 83.2233 84.561 82.6217C83.7327 82.21 82.736 82.5483 82.326 83.3717C81.916 84.1967 82.2527 85.1967 83.076 85.6067C83.8477 85.9883 84.5377 86.55 85.071 87.23C85.401 87.6467 85.8894 87.865 86.3844 87.865Z" fill="#1B1821"/>
<path id="Vector_22" d="M92.7412 66.2154C92.0262 66.5154 91.2696 66.6671 90.4879 66.6671H90.1296C89.2079 66.6671 88.4629 67.4121 88.4629 68.3337C88.4629 69.2554 89.2079 70.0004 90.1296 70.0004H90.4879C91.7146 70.0004 92.9062 69.7604 94.0296 69.2887C94.8796 68.9321 95.2779 67.9554 94.9212 67.1071C94.5662 66.2587 93.5829 65.8587 92.7412 66.2154Z" fill="#1B1821"/>
<path id="Vector_23" d="M47.2143 49.7584C48.0876 49.47 48.5643 48.5284 48.2776 47.6534C48.086 47.0684 47.9876 46.4567 47.9876 45.84C47.9893 45.5884 48.0043 45.3367 48.0343 45.0917C48.1493 44.1784 47.5026 43.3434 46.5893 43.23C45.6476 43.125 44.841 43.765 44.7276 44.675C44.681 45.0517 44.656 45.435 44.6543 45.8317C44.6543 46.8117 44.8076 47.775 45.1093 48.695C45.341 49.3967 45.9926 49.8417 46.6926 49.8417C46.866 49.8417 47.0426 49.8167 47.2143 49.7584Z" fill="#1B1821"/>
<path id="Vector_24" d="M40.6064 96.667H37.2731C36.3514 96.667 35.6064 97.412 35.6064 98.3337C35.6064 99.2553 36.3514 100 37.2731 100H40.6064C41.5281 100 42.2731 99.2553 42.2731 98.3337C42.2731 97.412 41.5264 96.667 40.6064 96.667Z" fill="#1B1821"/>
<path id="Vector_25" d="M57.369 84.3238C58.0024 84.3238 58.6057 83.9621 58.8857 83.3504C59.2674 82.5121 58.9007 81.5238 58.064 81.1421C57.2824 80.7838 56.574 80.2455 56.0174 79.5821C55.424 78.8771 54.374 78.7854 53.669 79.3788C52.964 79.9704 52.8724 81.0221 53.4657 81.7271C54.339 82.7655 55.449 83.6121 56.6774 84.1721C56.9024 84.2738 57.1374 84.3238 57.369 84.3238Z" fill="#1B1821"/>
<path id="Vector_26" d="M95.0764 52.8963C93.8864 52.2063 92.5865 51.8013 91.2148 51.693C90.2998 51.6263 89.4948 52.3047 89.4231 53.2247C89.3514 54.143 90.0364 54.9447 90.9548 55.0163C91.8248 55.0847 92.6498 55.3413 93.4048 55.7797C93.6681 55.933 93.9564 56.0047 94.2398 56.0047C94.8148 56.0047 95.3748 55.7063 95.6831 55.1747C96.1448 54.3797 95.8731 53.3597 95.0764 52.8963Z" fill="#1B1821"/>
<path id="Vector_27" d="M50.6064 96.667H47.2731C46.3514 96.667 45.6064 97.412 45.6064 98.3337C45.6064 99.2553 46.3514 100 47.2731 100H50.6064C51.5281 100 52.2731 99.2553 52.2731 98.3337C52.2731 97.412 51.5264 96.667 50.6064 96.667Z" fill="#1B1821"/>
<path id="Vector_28" d="M54.7583 74.732C54.9233 73.8753 55.2699 73.0837 55.7899 72.377C56.3349 71.637 56.1766 70.5937 55.4349 70.047C54.6933 69.5037 53.6516 69.6603 53.1049 70.402C52.2899 71.512 51.7433 72.757 51.4833 74.1053C51.3099 75.0087 51.9016 75.882 52.8066 76.057C52.9116 76.077 53.0183 76.087 53.1216 76.087C53.9049 76.0837 54.6033 75.5287 54.7583 74.732Z" fill="#1B1821"/>
<path id="Vector_29" d="M82.1549 25.0003C87.2083 25.0003 91.3216 20.887 91.3216 15.8337C91.3216 10.7803 87.2083 6.66699 82.1549 6.66699C77.1016 6.66699 72.9883 10.7803 72.9883 15.8337C72.9883 20.887 77.1016 25.0003 82.1549 25.0003ZM82.1549 10.0003C85.3716 10.0003 87.9883 12.617 87.9883 15.8337C87.9883 19.0503 85.3716 21.667 82.1549 21.667C78.9383 21.667 76.3216 19.0503 76.3216 15.8337C76.3216 12.617 78.9399 10.0003 82.1549 10.0003Z" fill="#1B1821"/>
<path id="Vector_30" d="M21.3213 51.667C15.8063 51.667 11.3213 56.152 11.3213 61.667C11.3213 67.182 15.8063 71.667 21.3213 71.667C26.8363 71.667 31.3213 67.182 31.3213 61.667C31.3213 56.152 26.8363 51.667 21.3213 51.667ZM21.3213 68.3337C17.6446 68.3337 14.6546 65.3437 14.6546 61.667C14.6546 57.9903 17.6446 55.0003 21.3213 55.0003C24.998 55.0003 27.988 57.9903 27.988 61.667C27.988 65.3437 24.998 68.3337 21.3213 68.3337Z" fill="#1B1821"/>
</g>
</g>
<defs>
<clipPath id="clip0_79_1085">
<rect width="100" height="100" fill="white" transform="translate(0.5)"/>
</clipPath>
</defs>
</svg>
