<svg width="101" height="100" viewBox="0 0 101 100" fill="none" xmlns="http://www.w3.org/2000/svg">
<g id="success 1" clip-path="url(#clip0_79_1148)">
<g id="Group">
<path id="Vector" d="M50.5 0C22.9308 0 0.5 22.4288 0.5 50C0.5 77.5712 22.9308 100 50.5 100C78.0692 100 100.5 77.5712 100.5 50C100.5 22.4288 78.0692 0 50.5 0ZM50.5 96.1538C25.0519 96.1538 4.34615 75.4481 4.34615 50C4.34615 24.5519 25.0519 3.84615 50.5 3.84615C75.9481 3.84615 96.6538 24.5519 96.6538 50C96.6538 75.4481 75.9481 96.1538 50.5 96.1538Z" fill="#1B1821"/>
<path id="Vector_2" d="M74.0611 29.4928L44.5053 62.7428L26.6995 48.4985C25.8726 47.8351 24.6592 47.9716 23.9976 48.7985C23.3342 49.6293 23.4688 50.8389 24.2976 51.5024L43.5284 66.887C43.8822 67.1697 44.3072 67.3082 44.7303 67.3082C45.2611 67.3082 45.7899 67.0889 46.1688 66.662L76.938 32.0466C77.6438 31.2543 77.5726 30.037 76.7784 29.3332C75.9822 28.6255 74.7688 28.6966 74.0611 29.4928Z" fill="#1B1821"/>
</g>
</g>
<defs>
<clipPath id="clip0_79_1148">
<rect width="100" height="100" fill="white" transform="translate(0.5)"/>
</clipPath>
</defs>
</svg>
