<svg width="6" height="2137" viewBox="0 0 6 2137" fill="none" xmlns="http://www.w3.org/2000/svg">
<path d="M3 0.333333C1.52724 0.333333 0.333333 1.52724 0.333333 3C0.333333 4.47276 1.52724 5.66667 3 5.66667C4.47276 5.66667 5.66667 4.47276 5.66667 3C5.66667 1.52724 4.47276 0.333333 3 0.333333ZM3.00009 2131.33C1.52733 2131.33 0.333426 2132.53 0.333426 2134C0.333426 2135.47 1.52733 2136.67 3.00009 2136.67C4.47285 2136.67 5.66676 2135.47 5.66676 2134C5.66676 2132.53 4.47285 2131.33 3.00009 2131.33ZM2.5 3L2.50009 2134L3.50009 2134L3.5 3L2.5 3Z" fill="#1B1821"/>
</svg>
