<svg width="101" height="100" viewBox="0 0 101 100" fill="none" xmlns="http://www.w3.org/2000/svg">
<g id="folder 1" clip-path="url(#clip0_79_1053)">
<path id="Vector" d="M96.3167 35.8337H92.1667V24.167H88.8333V17.5003H42.31L36.3583 9.16699H5.05333C2.54333 9.16699 0.5 11.2103 0.5 13.7203V86.532H0.51C0.501667 87.4703 0.793333 88.3887 1.38 89.157C2.19667 90.2237 3.43333 90.8337 4.775 90.8337H79.3733C81.3 90.8337 82.9967 89.5353 83.4567 87.812L100.5 41.082V40.787C100.5 37.917 98.74 35.8337 96.3167 35.8337ZM88.8333 35.8337H75.5V34.167C75.5 33.2453 74.7533 32.5003 73.8333 32.5003C72.9133 32.5003 72.1667 33.2453 72.1667 34.167V35.8337H63.8333V34.167C63.8333 33.2453 63.0867 32.5003 62.1667 32.5003C61.2467 32.5003 60.5 33.2453 60.5 34.167V35.8337H52.1667V34.167C52.1667 33.2453 51.42 32.5003 50.5 32.5003C49.58 32.5003 48.8333 33.2453 48.8333 34.167V35.8337H40.5V34.167C40.5 33.2453 39.7533 32.5003 38.8333 32.5003C37.9133 32.5003 37.1667 33.2453 37.1667 34.167V35.8337H28.8333V34.167C28.8333 33.2453 28.0867 32.5003 27.1667 32.5003C26.2467 32.5003 25.5 33.2453 25.5 34.167V35.8337H21.7183C21.48 35.8337 21.245 35.8537 21.015 35.892C20.1833 36.0303 19.4317 36.417 18.8333 36.957V27.5003H88.8333V35.8337ZM8.83333 62.9887V37.5003H18.325C18.0117 37.9053 17.7667 38.3603 17.635 38.8553L17.1067 40.3053L8.83333 62.9887ZM15.5 34.167H11.19L12.1667 33.1903L15.5 29.857V34.167ZM85.5 20.8337V24.167H16.4767L12.1667 28.477V20.8337H44.6917H85.5ZM3.83333 13.7203C3.83333 13.047 4.38167 12.5003 5.05333 12.5003H34.6417L38.2133 17.5003H8.83333V31.8103L5.5 35.1437V71.952L3.83333 76.4987V13.7203ZM80.2817 86.8053C80.1717 87.2137 79.7967 87.5003 79.3733 87.5003H4.775C4.37 87.5003 4.13333 87.2687 4.02833 87.1303C3.92333 86.9937 3.76167 86.7037 3.82333 86.4503L5.5 81.8537L20.7667 39.9987L20.81 39.862C20.92 39.4537 21.295 39.167 21.7183 39.167H92.1667H96.3167C96.95 39.167 97.1117 40.077 97.1533 40.532L80.2817 86.8053Z" fill="#1B1821"/>
</g>
<defs>
<clipPath id="clip0_79_1053">
<rect width="100" height="100" fill="white" transform="translate(0.5)"/>
</clipPath>
</defs>
</svg>
