<svg width="100" height="100" viewBox="0 0 100 100" fill="none" xmlns="http://www.w3.org/2000/svg">
<g id="database 1">
<path id="Vector" d="M95.1895 15.4727C93.0841 7.67273 77.4132 0 50.0004 0C22.5877 0 6.91499 7.67273 4.81135 15.4727C4.65863 15.74 4.5459 16.0327 4.5459 16.3636V17.2727V38.1818V39.0909V40V60V60.9091V61.8182V83.6364C4.5459 83.9309 4.62408 84.2091 4.75863 84.4564C6.9059 93.3564 26.1168 100 50.0004 100C73.8295 100 93.0095 93.3836 95.2277 84.5164C95.3732 84.2564 95.455 83.9564 95.455 83.6364V61.8182V60.9091V60V40V39.0909V38.1818V17.2727V16.3636C95.455 16.0327 95.3423 15.74 95.1895 15.4727ZM91.675 61.7909C91.6241 62.0109 91.5532 62.2291 91.4641 62.4509C91.3913 62.6309 91.3023 62.8109 91.2041 62.9909C91.0823 63.2146 90.9459 63.4382 90.7841 63.6618C90.6641 63.8309 90.5277 63.9982 90.3859 64.1655C90.1841 64.4036 89.9695 64.6418 89.7259 64.8782C89.5786 65.0218 89.4168 65.1636 89.2532 65.3073C88.955 65.5673 88.6441 65.8255 88.2968 66.0818C88.1477 66.1927 87.9877 66.3 87.8295 66.4091C87.4186 66.6927 86.9895 66.9745 86.5186 67.2509C86.395 67.3255 86.2623 67.3964 86.1332 67.4691C85.5914 67.7746 85.0259 68.0782 84.415 68.3727C84.3368 68.4109 84.255 68.4473 84.175 68.4836C83.4932 68.8055 82.7804 69.1218 82.0186 69.4273C81.9968 69.4364 81.975 69.4436 81.9532 69.4527C77.8241 71.1018 72.5423 72.4891 66.3877 73.3982C66.3568 73.4018 66.3259 73.4055 66.295 73.4109C65.0986 73.5873 63.8714 73.7436 62.6114 73.8818C62.4059 73.9036 62.1895 73.9182 61.9823 73.94C60.8823 74.0546 59.7695 74.16 58.6241 74.2436C58.1004 74.2818 57.5514 74.3 57.0186 74.3327C56.1568 74.3836 55.3041 74.44 54.4204 74.4709C52.9768 74.5164 51.5041 74.5455 50.0004 74.5455C48.4968 74.5455 47.0241 74.5164 45.5786 74.4655C44.695 74.4345 43.8423 74.3764 42.9804 74.3273C42.4477 74.2964 41.8986 74.2764 41.375 74.2382C40.2295 74.1545 39.1168 74.0491 38.0168 73.9345C37.8095 73.9127 37.5932 73.8982 37.3877 73.8764C36.1277 73.7382 34.9004 73.58 33.7041 73.4055C33.6732 73.4018 33.6423 73.3982 33.6114 73.3927C27.4568 72.4836 22.175 71.0964 18.0459 69.4473C18.0241 69.44 18.0023 69.4309 17.9804 69.4218C17.2186 69.1164 16.5041 68.8 15.8241 68.4782C15.7459 68.44 15.6623 68.4036 15.5841 68.3673C14.9732 68.0727 14.4077 67.7709 13.8659 67.4636C13.7386 67.3909 13.6041 67.32 13.4804 67.2455C13.0095 66.9691 12.5804 66.6873 12.1695 66.4036C12.0132 66.2945 11.8514 66.1873 11.7023 66.0764C11.355 65.82 11.0441 65.5618 10.7459 65.3018C10.5841 65.16 10.4204 65.0182 10.2732 64.8727C10.0295 64.6364 9.81499 64.4 9.61317 64.16C9.47135 63.9927 9.33499 63.8255 9.21499 63.6564C9.05499 63.4327 8.91863 63.2091 8.79499 62.9855C8.69681 62.8055 8.60953 62.6255 8.53499 62.4455C8.4459 62.2255 8.37499 62.0055 8.32408 61.7855C8.25681 61.4964 8.18226 61.2018 8.18226 60.9091C8.18226 60.7036 8.2059 60.4982 8.23863 60.2945C8.28408 60.02 8.25863 59.7455 8.18226 59.4855V45.9873C8.23317 46.0345 8.29681 46.08 8.34953 46.1273C8.7459 46.4764 9.14953 46.8236 9.60408 47.1582C16.4532 52.3382 30.1495 56.3636 50.0004 56.3636C69.7677 56.3636 83.4295 52.3709 90.3077 47.2218C90.8568 46.8218 91.3513 46.4091 91.8168 45.9891L91.8186 45.9873V59.4855C91.7423 59.7455 91.7168 60.02 91.7623 60.2945C91.7968 60.4982 91.8186 60.7036 91.8186 60.9091C91.8186 61.2018 91.7441 61.4964 91.675 61.7909ZM91.8186 24.1691V37.6673C91.7423 37.9273 91.7168 38.2018 91.7623 38.4764C91.7968 38.68 91.8186 38.8855 91.8186 39.0909C91.8186 39.3836 91.7441 39.6782 91.675 39.9727C91.6241 40.1927 91.5532 40.4109 91.4641 40.6327C91.3913 40.8127 91.3023 40.9927 91.2041 41.1727C91.0823 41.3964 90.9459 41.62 90.7841 41.8436C90.6641 42.0127 90.5277 42.18 90.3859 42.3473C90.1841 42.5855 89.9695 42.8236 89.7259 43.06C89.5786 43.2036 89.4168 43.3455 89.2532 43.4891C88.955 43.7491 88.6441 44.0073 88.2968 44.2636C88.1477 44.3745 87.9877 44.4818 87.8295 44.5909C87.4186 44.8745 86.9895 45.1564 86.5186 45.4327C86.395 45.5073 86.2623 45.5782 86.1332 45.6509C85.5914 45.9564 85.0259 46.26 84.415 46.5545C84.3368 46.5927 84.255 46.6291 84.175 46.6655C83.4932 46.9873 82.7804 47.3036 82.0186 47.6091C81.9968 47.6182 81.975 47.6255 81.9532 47.6345C77.8241 49.2836 72.5423 50.6709 66.3877 51.58C66.3568 51.5836 66.3259 51.5873 66.295 51.5927C65.0986 51.7691 63.8714 51.9255 62.6114 52.0636C62.4059 52.0855 62.1895 52.1 61.9823 52.1218C60.8823 52.2364 59.7695 52.3418 58.6241 52.4255C58.1004 52.4636 57.5514 52.4818 57.0186 52.5145C56.1568 52.5655 55.3041 52.6218 54.4204 52.6527C52.9768 52.6982 51.5041 52.7273 50.0004 52.7273C48.4968 52.7273 47.0241 52.6982 45.5786 52.6473C44.695 52.6164 43.8423 52.5582 42.9804 52.5091C42.4477 52.4782 41.8986 52.4582 41.375 52.42C40.2295 52.3364 39.1168 52.2309 38.0168 52.1164C37.8095 52.0945 37.5932 52.08 37.3877 52.0582C36.1277 51.92 34.9004 51.7618 33.7041 51.5873C33.6732 51.5836 33.6423 51.58 33.6114 51.5745C27.4568 50.6655 22.175 49.2782 18.0459 47.6291C18.0241 47.6218 18.0023 47.6127 17.9804 47.6036C17.2186 47.2982 16.5041 46.9818 15.8241 46.66C15.7459 46.6218 15.6623 46.5855 15.5841 46.5491C14.9732 46.2545 14.4077 45.9527 13.8659 45.6455C13.7386 45.5727 13.6041 45.5018 13.4804 45.4273C13.0095 45.1509 12.5804 44.8691 12.1695 44.5855C12.0132 44.4764 11.8514 44.3691 11.7023 44.2582C11.355 44.0018 11.0441 43.7436 10.7459 43.4836C10.5841 43.3418 10.4204 43.2 10.2732 43.0545C10.0295 42.8182 9.81499 42.5818 9.61317 42.3418C9.47135 42.1745 9.33499 42.0073 9.21499 41.8382C9.05499 41.6145 8.91863 41.3909 8.79499 41.1673C8.69681 40.9873 8.60953 40.8073 8.53499 40.6273C8.4459 40.4073 8.37499 40.1873 8.32408 39.9673C8.25681 39.6782 8.18226 39.3836 8.18226 39.0909C8.18226 38.8855 8.2059 38.68 8.23863 38.4764C8.28408 38.2018 8.25863 37.9273 8.18226 37.6673V24.1691C8.40044 24.3673 8.64953 24.5618 8.8859 24.7582C9.01681 24.8673 9.13863 24.9764 9.27681 25.0855C9.82226 25.5145 10.4114 25.9382 11.0495 26.3509C11.1823 26.4364 11.3314 26.52 11.4695 26.6055C12.0041 26.9382 12.5695 27.2636 13.1641 27.5836C13.3841 27.7018 13.6041 27.8182 13.8314 27.9345C14.495 28.2727 15.1914 28.6018 15.9241 28.92C16.0441 28.9727 16.1532 29.0273 16.275 29.0782C17.1277 29.44 18.0332 29.7855 18.975 30.12C19.235 30.2127 19.5077 30.3 19.775 30.3909C20.5241 30.6436 21.2986 30.8855 22.1004 31.12C22.3895 31.2036 22.6732 31.2909 22.9695 31.3709C24.0332 31.6655 25.1314 31.9455 26.2841 32.2036C26.4423 32.24 26.6132 32.2691 26.7732 32.3036C27.7895 32.5255 28.8441 32.7309 29.9277 32.9236C30.295 32.9891 30.6677 33.0509 31.0423 33.1127C32.0732 33.2818 33.135 33.4364 34.2241 33.5782C34.5041 33.6145 34.7714 33.6564 35.055 33.6909C36.4077 33.8545 37.8077 33.9945 39.2459 34.1145C39.6004 34.1436 39.9695 34.1655 40.3295 34.1909C41.4804 34.2745 42.6568 34.3436 43.8604 34.3982C44.2986 34.4182 44.735 34.4382 45.1823 34.4545C46.7495 34.5073 48.3459 34.5455 50.0004 34.5455C51.655 34.5455 53.2514 34.5073 54.8186 34.4545C55.2641 34.4382 55.7004 34.4182 56.1404 34.3982C57.3441 34.3436 58.5204 34.2745 59.6714 34.1909C60.0314 34.1636 60.3986 34.1436 60.755 34.1145C62.1932 33.9964 63.5932 33.8545 64.9459 33.6909C65.2295 33.6564 65.4968 33.6145 65.7768 33.5782C66.8659 33.4364 67.9259 33.2818 68.9586 33.1127C69.3332 33.0509 69.7059 32.9891 70.0732 32.9236C71.1568 32.7309 72.2114 32.5255 73.2277 32.3036C73.3877 32.2691 73.5586 32.2382 73.7168 32.2036C74.8695 31.9455 75.9677 31.6636 77.0313 31.3709C77.3277 31.2891 77.6114 31.2036 77.9004 31.12C78.7023 30.8855 79.4768 30.6436 80.2259 30.3909C80.4932 30.3 80.7659 30.2127 81.0259 30.12C81.9677 29.7855 82.875 29.44 83.7259 29.0782C83.8477 29.0273 83.9568 28.9727 84.0768 28.92C84.8095 28.6 85.5059 28.2727 86.1695 27.9345C86.3968 27.8182 86.6186 27.7018 86.8368 27.5836C87.4314 27.2655 87.9968 26.94 88.5313 26.6055C88.6695 26.52 88.8186 26.4364 88.9513 26.3509C89.5895 25.9382 90.1786 25.5164 90.7241 25.0855C90.8604 24.9764 90.9823 24.8673 91.115 24.7582C91.3513 24.5618 91.6004 24.3673 91.8186 24.1691ZM50.0004 3.63636C74.6459 3.63636 91.8186 10.8218 91.8186 17.2727C91.8186 23.7236 74.6459 30.9091 50.0004 30.9091C25.355 30.9091 8.18226 23.7236 8.18226 17.2727C8.18226 10.8218 25.355 3.63636 50.0004 3.63636ZM91.8186 83.0964C91.7932 83.1764 91.775 83.2582 91.7604 83.3418C90.7295 89.6309 73.7023 96.3636 50.0004 96.3636C26.2986 96.3636 9.27135 89.6309 8.24044 83.3418C8.2259 83.26 8.2059 83.18 8.18226 83.1036V67.8055C8.23317 67.8527 8.29681 67.8982 8.34953 67.9455C8.7459 68.2945 9.14953 68.6418 9.60408 68.9764C16.4532 74.1564 30.1495 78.1818 50.0004 78.1818C69.7677 78.1818 83.4295 74.1891 90.3077 69.04C90.8568 68.64 91.3513 68.2273 91.8168 67.8073L91.8186 67.8055V83.0964Z" fill="#1B1821"/>
</g>
</svg>
