<svg width="101" height="100" viewBox="0 0 101 100" fill="none" xmlns="http://www.w3.org/2000/svg">
<g id="funnel 1">
<path id="Vector" d="M98.5068 13.4416C98.5068 4.61624 74.356 0 50.501 0C26.6459 0 2.49512 4.61624 2.49512 13.4416C2.49512 15.4425 3.74519 17.2226 5.94386 18.7856L38.9796 63.9879V97.6458C38.9796 98.4715 39.4711 99.2069 40.2315 99.5257L41.5488 99.9981L62.0224 79.5226V63.9937L95.0216 18.8356L95.0196 18.8125C97.2394 17.2437 98.5068 15.4521 98.5068 13.4416ZM50.501 3.84047C77.461 3.84047 94.6663 9.52628 94.6663 13.4416C94.6663 14.252 93.8905 15.1372 92.4869 16.032L92.3889 16.0205L92.4216 16.0724C86.9739 19.4923 71.804 23.0428 50.501 23.0428C29.1768 23.0428 13.9973 19.4865 8.56497 16.0628L8.59762 16.0109L7.80648 15.5405C6.86365 14.8146 6.33558 14.1022 6.33558 13.4416C6.33558 9.52628 23.5409 3.84047 50.501 3.84047ZM58.1819 77.9346L42.82 93.2965V65.2879H58.1819V77.9346ZM59.1305 61.4475H41.8733L13.2023 22.2113C22.4636 25.2972 36.5293 26.8833 50.501 26.8833C64.4726 26.8833 78.5364 25.2972 87.7996 22.2133L59.1305 61.4475Z" fill="#1B1821"/>
</g>
</svg>
