<svg width="100" height="100" viewBox="0 0 100 100" fill="none" xmlns="http://www.w3.org/2000/svg">
<g id="smartphone 1" clip-path="url(#clip0_79_1036)">
<g id="Group">
<path id="Vector" d="M60.2944 83.333C57.0776 83.333 54.4609 85.9497 54.4609 89.1664C54.4609 92.3832 57.0776 94.9999 60.2944 94.9999C63.5111 94.9999 66.1278 92.3832 66.1278 89.1664C66.1278 85.9497 63.5094 83.333 60.2944 83.333ZM60.2944 91.6665C58.916 91.6665 57.7943 90.5448 57.7943 89.1664C57.7943 87.7881 58.916 86.6664 60.2944 86.6664C61.6727 86.6664 62.7944 87.7881 62.7944 89.1664C62.7944 90.5448 61.6727 91.6665 60.2944 91.6665Z" fill="#1B1821"/>
<path id="Vector_2" d="M67.7957 61.6666C71.4724 61.6666 74.4625 58.6765 74.4625 54.9998C74.4625 51.3231 71.4724 48.333 67.7957 48.333C64.119 48.333 61.1289 51.3231 61.1289 54.9998C61.1289 58.6765 64.1173 61.6666 67.7957 61.6666ZM67.7957 51.6664C69.634 51.6664 71.1291 53.1614 71.1291 54.9998C71.1291 56.8381 69.634 58.3332 67.7957 58.3332C65.9573 58.3332 64.4623 56.8381 64.4623 54.9998C64.4623 53.1614 65.9573 51.6664 67.7957 51.6664Z" fill="#1B1821"/>
<path id="Vector_3" d="M27.7941 19.9992C28.2207 19.9992 28.6474 19.8359 28.9724 19.5109L32.3058 16.1775C32.9575 15.5258 32.9575 14.4725 32.3058 13.8208C31.6541 13.1691 30.6008 13.1691 29.9491 13.8208L26.6157 17.1542C25.964 17.8059 25.964 18.8592 26.6157 19.5109C26.9407 19.8359 27.3674 19.9992 27.7941 19.9992Z" fill="#1B1821"/>
<path id="Vector_4" d="M87.7954 49.5794C87.7954 48.1127 87.2237 46.7344 86.187 45.6977L85.2587 44.7694C86.8404 43.3693 87.7937 41.3443 87.7937 39.1659C87.7937 35.0309 84.4286 31.6658 80.2936 31.6658C79.9902 31.6658 79.6902 31.6958 79.3936 31.7325C79.4302 31.4341 79.4602 31.1375 79.4602 30.8325C79.4602 26.6974 76.0952 23.3323 71.9601 23.3323C71.6568 23.3323 71.3568 23.3623 71.0601 23.399C71.0968 23.1007 71.1268 22.804 71.1268 22.499C71.1268 18.3639 67.7617 14.9989 63.6266 14.9989C63.3233 14.9989 63.0233 15.0289 62.7266 15.0655C62.7633 14.7672 62.7933 14.4705 62.7933 14.1655C62.7933 10.0304 59.4282 6.66539 55.2932 6.66539C53.1131 6.66539 51.0898 7.6204 49.6897 9.20043L48.3664 7.87707L42.0946 1.6053C39.9529 -0.536402 36.4695 -0.536402 34.3311 1.6053L13.8108 22.1256C11.6724 24.2673 11.6724 27.7491 13.8108 29.8908L20.0826 36.1625L28.266 44.346C26.006 45.6394 24.461 48.0477 24.461 50.8328C24.461 53.4378 25.7993 55.7345 27.8227 57.0796C27.9244 57.2146 28.0427 57.3479 28.201 57.4829L46.128 75.3415V78.3349H42.7946V100.002H72.7951H86.1287V78.3349H82.7953V73.2848C85.9837 70.5831 87.7954 66.6981 87.7954 62.4997C87.7954 59.5996 86.8904 56.7829 85.2353 54.4128L86.187 53.4612C87.2237 52.4245 87.7954 51.0461 87.7954 49.5794ZM84.462 39.1659C84.462 40.4459 83.872 41.631 82.9003 42.411L77.0485 36.5592C77.8285 35.5875 79.0152 34.9975 80.2936 34.9975C82.5919 34.9992 84.462 36.8676 84.462 39.1659ZM76.1285 30.8325C76.1285 32.1125 75.5385 33.2975 74.5668 34.0775L68.7151 28.2257C69.4951 27.2541 70.6818 26.6641 71.9601 26.6641C74.2585 26.6657 76.1285 28.5341 76.1285 30.8325ZM67.795 22.499C67.795 23.779 67.205 24.964 66.2333 25.744L60.3816 19.8923C61.1616 18.9206 62.3483 18.3306 63.6266 18.3306C65.925 18.3322 67.795 20.2006 67.795 22.499ZM55.2948 9.99877C57.5932 9.99877 59.4616 11.8671 59.4616 14.1655C59.4616 15.4455 58.8716 16.6306 57.8999 17.4106L52.0481 11.5588C52.8281 10.5888 54.0148 9.99877 55.2948 9.99877ZM16.1675 27.5357C15.3275 26.6941 15.3275 25.3257 16.1675 24.484L36.6879 3.96367C36.8962 3.75534 37.1395 3.59867 37.3979 3.49367C37.5145 3.44533 37.6462 3.447 37.7695 3.42033C38.0662 3.357 38.3596 3.357 38.6562 3.42033C38.7796 3.447 38.9112 3.44533 39.0279 3.49367C39.2862 3.59867 39.5279 3.75534 39.7379 3.96367L43.653 7.87874L20.0826 31.4491L16.1675 27.5357ZM46.0097 10.2354L47.973 12.1988L56.3065 20.5323L57.2615 21.4873L64.64 28.8658L65.595 29.8208L72.9735 37.1992L73.9285 38.1542L82.2619 46.4877L83.8286 48.0544C84.6703 48.8961 84.6703 50.2628 83.8286 51.1045L83.1003 51.8345L63.31 71.6265C62.4716 72.4665 61.0999 72.4698 60.2582 71.6265L46.9664 58.3329H48.6264C52.7615 58.3329 56.1265 54.9679 56.1265 50.8328C56.1265 46.6977 52.7615 43.3327 48.6264 43.3327H31.9644L22.4376 33.8058L46.0097 10.2354ZM31.0611 46.7694L31.7528 46.6911C31.8211 46.6811 31.8894 46.6661 31.9594 46.6661H48.6264C50.9248 46.6661 52.7931 48.5344 52.7931 50.8328C52.7931 53.1312 50.9248 54.9995 48.6264 54.9995H43.633H38.9196H31.9594C29.6611 54.9995 27.7927 53.1312 27.7927 50.8328C27.7944 48.8444 29.1961 47.1827 31.0611 46.7694ZM46.128 96.6669V81.6666H60.1716C65.2933 81.6666 69.4617 85.835 69.4617 90.9568V96.6669H46.128ZM82.7953 96.6669H72.7951V90.9568C72.7951 87.2801 71.2051 83.9767 68.6884 81.6666H82.7953V96.6669ZM82.837 56.8129C83.8936 58.5146 84.462 60.483 84.462 62.4997C84.462 65.9247 82.882 69.0764 80.1252 71.1515L79.4619 71.6515V78.3333H60.1699H49.4597V73.8032L48.8714 73.3048C48.7964 73.2398 48.7164 73.1798 48.5714 73.0715L33.7761 58.3313H42.2513L57.8999 73.9815C58.9716 75.0515 60.3766 75.5865 61.7816 75.5865C63.1883 75.5865 64.595 75.0515 65.665 73.9815L82.837 56.8129Z" fill="#1B1821"/>
</g>
</g>
<defs>
<clipPath id="clip0_79_1036">
<rect width="100" height="100" fill="white"/>
</clipPath>
</defs>
</svg>
