<svg width="100" height="100" viewBox="0 0 100 100" fill="none" xmlns="http://www.w3.org/2000/svg">
<g id="placeholder (1) 1">
<g id="Group">
<path id="Vector" d="M50.7726 38.2921C55.9126 38.2921 60.0939 34.1494 60.0939 29.0596C60.0939 23.9699 55.9126 19.8271 50.7726 19.8271C45.6325 19.8271 41.4512 23.9699 41.4512 29.0596C41.4512 34.1494 45.6325 38.2921 50.7726 38.2921ZM50.7726 22.465C54.4439 22.465 57.4307 25.4233 57.4307 29.0596C57.4307 32.6959 54.4439 35.6542 50.7726 35.6542C47.1013 35.6542 44.1144 32.6959 44.1144 29.0596C44.1144 25.4233 47.1013 22.465 50.7726 22.465Z" fill="#1B1821"/>
<path id="Vector_2" d="M50.5372 76.2203L70.9657 46.9969C78.6279 36.8781 77.5186 20.2491 68.5941 11.4097C63.7709 6.63125 57.3578 4 50.5372 4C43.7166 4 37.3035 6.63125 32.4803 11.4084C23.5545 20.2478 22.4452 36.8795 30.0781 46.9561L50.5372 76.2203ZM34.3633 13.2734C38.6831 8.99477 44.4277 6.63785 50.5372 6.63785C56.6467 6.63785 62.39 8.99477 66.7111 13.2734C74.7661 21.2515 75.7582 36.2714 68.8058 45.4538L50.5372 71.5856L32.2393 45.4142C25.3149 36.2714 26.3069 21.2515 34.3633 13.2734Z" fill="#1B1821"/>
</g>
<path id="Vector 1" d="M4 71.0098C11.9234 83.076 17.4776 82.8991 23.8086 76.5384C30.8859 69.7974 34.8926 69.0884 42.2967 76.5384C49.7091 82.2735 53.5605 82.5911 59.9043 76.5384C66.7497 69.084 70.5207 69.2241 77.0718 76.5384C84.1496 82.9201 89.8373 83.5787 96 71.0098" stroke="#1B1821" stroke-width="2"/>
<path id="Vector 2" d="M4 78.0098C11.9234 90.076 17.4776 89.8991 23.8086 83.5384C30.8859 76.7974 34.8926 76.0884 42.2967 83.5384C49.7091 89.2735 53.5605 89.5911 59.9043 83.5384C66.7497 76.084 70.5207 76.2241 77.0718 83.5384C84.1496 89.9201 89.8373 90.5787 96 78.0098" stroke="#1B1821" stroke-width="2"/>
<path id="Vector 3" d="M4 85.0098C11.9234 97.076 17.4776 96.8991 23.8086 90.5384C30.8859 83.7974 34.8926 83.0884 42.2967 90.5384C49.7091 96.2735 53.5605 96.5911 59.9043 90.5384C66.7497 83.084 70.5207 83.2241 77.0718 90.5384C84.1496 96.9201 89.8373 97.5787 96 85.0098" stroke="#1B1821" stroke-width="2"/>
</g>
</svg>
