<svg width="100" height="100" viewBox="0 0 100 100" fill="none" xmlns="http://www.w3.org/2000/svg">
<g id="key 1" clip-path="url(#clip0_79_1122)">
<path id="Vector" d="M71.429 0C55.6754 0 42.8576 12.8179 42.8576 28.5714C42.8576 34.4375 44.6397 39.8929 47.6826 44.4357L0.523661 91.5946C-0.174554 92.2929 -0.174554 93.4214 0.523661 94.1196C0.871875 94.4679 1.32902 94.6429 1.78616 94.6429C2.2433 94.6429 2.70045 94.4679 3.04866 94.1196L10.7147 86.4536L23.7379 99.4768C24.0862 99.825 24.5433 100 25.0004 100C25.4576 100 25.9147 99.825 26.2629 99.4768C26.9612 98.7786 26.9612 97.65 26.2629 96.9518L13.2397 83.9286L19.6433 77.525L29.0951 86.9768C29.4433 87.325 29.9004 87.5 30.3576 87.5C30.8147 87.5 31.2719 87.325 31.6201 86.9768C32.3183 86.2786 32.3183 85.15 31.6201 84.4518L22.1683 75L28.5719 68.5964L41.5951 81.6196C41.9433 81.9679 42.4004 82.1429 42.8576 82.1429C43.3147 82.1429 43.7719 81.9679 44.1201 81.6196C44.8183 80.9214 44.8183 79.7929 44.1201 79.0946L31.0969 66.0714L49.8862 47.2821C55.129 53.3089 62.8326 57.1429 71.429 57.1429C87.1826 57.1429 100 44.325 100 28.5714C100 12.8179 87.1826 0 71.429 0ZM71.429 53.5714C57.6433 53.5714 46.429 42.3571 46.429 28.5714C46.429 14.7857 57.6433 3.57143 71.429 3.57143C85.2147 3.57143 96.429 14.7857 96.429 28.5714C96.429 42.3571 85.2147 53.5714 71.429 53.5714Z" fill="#1B1821"/>
</g>
<defs>
<clipPath id="clip0_79_1122">
<rect width="100" height="100" fill="white"/>
</clipPath>
</defs>
</svg>
