<svg width="30" height="30" viewBox="0 0 30 30" fill="none" xmlns="http://www.w3.org/2000/svg">
<g id="email 1">
<g id="Group">
<g id="Group_2">
<path id="Vector" d="M23.75 12.5317V6.25002C23.75 4.87125 22.6288 3.75 21.25 3.75H2.49996C1.12119 3.75 0 4.87119 0 6.25002V18.75C0 20.1288 1.12119 21.25 2.50002 21.25H16.5165C17.3354 24.1313 19.9847 26.25 23.125 26.25C24.3335 26.25 25.5219 25.932 26.5631 25.3296C26.8616 25.1569 26.9641 24.7748 26.7908 24.4757C26.618 24.1767 26.2354 24.0735 25.9369 24.2481C25.086 24.74 24.1137 25 23.125 25C20.0231 25 17.5 22.4768 17.5 19.375C17.5 16.2732 20.0232 13.75 23.125 13.75C26.2267 13.75 28.75 16.2732 28.75 19.375V20C28.75 20.6891 28.189 21.25 27.5 21.25C26.8109 21.25 26.25 20.6891 26.25 20V17.5C26.25 17.1546 25.9704 16.875 25.625 16.875C25.4569 16.875 25.3058 16.943 25.1936 17.0508C24.6412 16.5585 23.9213 16.25 23.125 16.25C21.402 16.25 20 17.652 20 19.375C20 21.098 21.402 22.5 23.125 22.5C24.0564 22.5 24.8846 22.0822 25.4576 21.4335C25.9104 22.0767 26.6553 22.5 27.5 22.5C28.8788 22.5 30 21.3788 30 20V19.375C30 15.7951 27.2487 12.8489 23.75 12.5317ZM2.50002 4.99998H21.25C21.276 4.99998 21.2978 5.01328 21.3235 5.01486L12.3889 12.3486C12.071 12.5488 11.6101 12.5073 11.4032 12.3804L2.4273 5.01475C2.45268 5.01322 2.47424 4.99998 2.50002 4.99998ZM22.5 12.5317C19.0013 12.8489 16.25 15.7951 16.25 19.375C16.25 19.586 16.2629 19.7938 16.2816 20H2.50002C1.81096 20 1.25004 19.4391 1.25004 18.7501V6.25002C1.25004 6.07301 1.28912 5.90584 1.3558 5.75314L10.6654 13.3875C11.0291 13.6249 11.4472 13.7501 11.8751 13.7501C12.2865 13.7501 12.6887 13.6341 13.0427 13.4144C13.0781 13.3955 13.1116 13.3729 13.1434 13.3467L22.3942 5.75303C22.4609 5.90584 22.5001 6.07301 22.5001 6.25008V12.5317H22.5ZM23.125 21.25C22.0911 21.25 21.25 20.409 21.25 19.375C21.25 18.3411 22.0911 17.5 23.125 17.5C24.159 17.5 25 18.3411 25 19.375C25 20.409 24.159 21.25 23.125 21.25Z" fill="white"/>
</g>
</g>
</g>
</svg>
