<svg width="30" height="30" viewBox="0 0 30 30" fill="none" xmlns="http://www.w3.org/2000/svg">
<g id="smartphone (1) 1">
<g id="Group">
<g id="Group_2">
<path id="Vector" d="M17.5 1.5H12.5C12.224 1.5 12 1.724 12 1.99998C12 2.27596 12.224 2.49996 12.5 2.49996H17.5C17.7759 2.49996 17.9999 2.27596 17.9999 1.99998C17.9999 1.724 17.7759 1.5 17.5 1.5Z" fill="white"/>
</g>
</g>
<g id="Group_3">
<g id="Group_4">
<path id="Vector_2" d="M21 1.5H20.5C20.224 1.5 20 1.724 20 1.99998C20 2.27596 20.224 2.49996 20.5 2.49996H21C21.2759 2.49996 21.4999 2.27596 21.4999 1.99998C21.4999 1.724 21.2759 1.5 21 1.5Z" fill="white"/>
</g>
</g>
<g id="Group_5">
<g id="Group_6">
<path id="Vector_3" d="M15.621 25.5H14.3795C13.619 25.5 13 26.119 13 26.8795V27.121C13 27.8815 13.619 28.5 14.379 28.5H15.6205C16.381 28.5 17 27.8815 17 27.121V26.8795C17 26.119 16.381 25.5 15.621 25.5ZM16 27.121C16 27.33 15.83 27.5 15.621 27.5H14.3795C14.17 27.5 14 27.33 14 27.121V26.8795C14 26.67 14.1699 26.5 14.3795 26.5H15.6205C15.83 26.5 16 26.6699 16 26.8795V27.121Z" fill="white"/>
</g>
</g>
<g id="Group_7">
<g id="Group_8">
<path id="Vector_4" d="M21.693 0H8.3075C7.311 0 6.5 0.810996 6.5 1.8075V28.1925C6.5 29.189 7.311 30 8.3075 30H21.6925C22.689 30 23.5 29.189 23.5 28.193V1.8075C23.5 0.810996 22.689 0 21.693 0ZM22.5 28.1925C22.5 28.6375 22.138 29 21.693 29H8.3075C7.86201 29 7.50002 28.6375 7.50002 28.193V1.8075C7.50002 1.36248 7.86201 1.00002 8.3075 1.00002H21.6925C22.138 1.00002 22.5 1.36254 22.5 1.8075V28.1925H22.5Z" fill="white"/>
</g>
</g>
<g id="Group_9">
<g id="Group_10">
<path id="Vector_5" d="M22.9999 3H6.99998C6.724 3 6.5 3.224 6.5 3.49998V24.5C6.5 24.776 6.724 25 6.99998 25H23C23.276 25 23.5 24.776 23.5 24.5V3.49998C23.5 3.224 23.276 3 22.9999 3ZM22.5 24H7.49996V4.00002H22.5V24Z" fill="white"/>
</g>
</g>
</g>
</svg>
