<svg width="30" height="30" viewBox="0 0 30 30" fill="none" xmlns="http://www.w3.org/2000/svg">
<g id="whatsapp 1" clip-path="url(#clip0_157_277)">
<path id="Vector" d="M25.7389 4.26109C22.991 1.51314 19.3382 0 15.4518 0C15.4516 0 15.4507 0 15.4504 0C13.5283 0.000228882 11.6551 0.372391 9.88335 1.10641C8.11135 1.84044 6.52382 2.90176 5.16449 4.26109C2.41677 7.00882 0.903629 10.6622 0.903629 14.5482C0.903629 16.8656 1.46279 19.1686 2.52228 21.2206L0.0769077 28.2065C-0.0954403 28.6993 0.0265537 29.2348 0.395969 29.604C0.654377 29.8627 0.994495 30 1.34423 30C1.49414 30 1.64566 29.9748 1.79352 29.9231L8.77945 27.478C10.8314 28.5374 13.1344 29.0966 15.4518 29.0966C19.3378 29.0966 22.991 27.5832 25.7389 24.8355C28.4866 22.0878 30 18.4344 30 14.5484C30 10.6622 28.4869 7.00882 25.7389 4.26109ZM24.4947 23.5913C22.0793 26.0069 18.8677 27.337 15.4518 27.337C13.3621 27.337 11.2862 26.8201 9.44825 25.8419C9.11499 25.6647 8.72109 25.6343 8.36747 25.7581L2.02057 27.9794L4.2421 21.6325C4.36592 21.2785 4.33525 20.8846 4.1581 20.5515C3.18009 18.7141 2.66304 16.6381 2.66304 14.5482C2.66304 11.1324 3.99331 7.92068 6.4087 5.50529C8.82386 3.09013 12.0351 1.75987 15.4507 1.75941H15.4518C18.8679 1.75941 22.0793 3.08968 24.4947 5.50529C26.9103 7.92068 28.2406 11.1321 28.2406 14.5482C28.2406 17.9642 26.9103 21.1759 24.4947 23.5913Z" fill="white"/>
<path id="Vector_2" d="M20.8586 15.8486C20.1894 15.1794 19.1003 15.1794 18.4311 15.8486L17.6991 16.5806C15.8816 15.5902 14.4108 14.1194 13.4202 12.3019L14.1521 11.5699C14.8216 10.9007 14.8216 9.81166 14.1521 9.14241L12.1796 7.16991C11.5104 6.50066 10.4214 6.50066 9.75211 7.16991L8.1742 8.74782C7.27035 9.65167 7.22526 11.2056 8.04717 13.1234C8.76083 14.7885 10.0668 16.6186 11.7246 18.2764C13.3824 19.9342 15.2125 21.2402 16.8777 21.9538C17.7888 22.3443 18.6176 22.5391 19.3338 22.5391C20.125 22.5391 20.7787 22.3013 21.2532 21.8268L22.8311 20.2487V20.2489C23.1554 19.9246 23.334 19.4936 23.334 19.0351C23.334 18.5765 23.1554 18.1455 22.8311 17.8214L20.8586 15.8486ZM20.009 20.5826C19.751 20.8406 18.9577 20.931 17.5709 20.3368C16.1066 19.7092 14.4721 18.5355 12.9688 17.0322C11.4655 15.5289 10.292 13.8947 9.66445 12.4303C9.07004 11.0435 9.16045 10.25 9.4184 9.99202L10.9661 8.44432L12.8777 10.3562L11.9615 11.2726C11.5472 11.6869 11.4472 12.3152 11.7129 12.8361C12.9175 15.1982 14.8028 17.0835 17.1649 18.2881C17.6861 18.5538 18.3144 18.454 18.7286 18.0395L19.6448 17.1233L21.5567 19.0351L20.009 20.5826Z" fill="white"/>
</g>
<defs>
<clipPath id="clip0_157_277">
<rect width="30" height="30" fill="white"/>
</clipPath>
</defs>
</svg>
